<?xml version="1.0" encoding="UTF-8" standalone="no"?>
<svg
   width="128"
   height="128"
   version="1.1"
   viewBox="0 0 128 128"
   id="svg48"
   sodipodi:docname="cartridge.svg"
   inkscape:version="1.2.1 (9c6d41e410, 2022-07-14)"
   xmlns:inkscape="http://www.inkscape.org/namespaces/inkscape"
   xmlns:sodipodi="http://sodipodi.sourceforge.net/DTD/sodipodi-0.dtd"
   xmlns="http://www.w3.org/2000/svg"
   xmlns:svg="http://www.w3.org/2000/svg">
  <defs
     id="defs52" />
  <sodipodi:namedview
     id="namedview50"
     pagecolor="#ffffff"
     bordercolor="#666666"
     borderopacity="1.0"
     inkscape:pageshadow="2"
     inkscape:pageopacity="0.0"
     inkscape:pagecheckerboard="0"
     showgrid="false"
     inkscape:zoom="2.8229029"
     inkscape:cx="67.306601"
     inkscape:cy="66.243865"
     inkscape:window-width="1858"
     inkscape:window-height="1057"
     inkscape:window-x="54"
     inkscape:window-y="-8"
     inkscape:window-maximized="1"
     inkscape:current-layer="svg48"
     inkscape:showpageshadow="2"
     inkscape:deskcolor="#d1d1d1" />
  <path
     fill="#aaa"
     stroke="#777"
     stroke-linejoin="round"
     stroke-width="3"
     d="m10 4 h108 v100 h-6 v20 h-96 v-20 h-6 v-100 z"
     id="path2" />
  <path
     fill="#777"
     stroke="#777"
     stroke-linejoin="round"
     stroke-width="3"
     d="m60 94 h12 l-6 8 l-6 -8 z"
     id="path4" />
  <path
     fill="#777"
     stroke="#777"
     stroke-linejoin="round"
     stroke-width="3"
     d="m58 4 h44 v80 h-44 v-80 z"
     id="path6" />
  <line
     stroke="#777"
     stroke-width="3"
     x1="24"
     y1="4"
     x2="24"
     y2="124"
     id="line8" />
  <line
     stroke="#777"
     stroke-width="3"
     x1="50"
     y1="4"
     x2="50"
     y2="124"
     id="line10" />
  <line
     stroke="#777"
     stroke-width="3"
     x1="24"
     y1="10"
     x2="50"
     y2="10"
     id="line12" />
  <line
     stroke="#777"
     stroke-width="3"
     x1="24"
     y1="16"
     x2="50"
     y2="16"
     id="line14" />
  <line
     stroke="#777"
     stroke-width="3"
     x1="24"
     y1="22"
     x2="50"
     y2="22"
     id="line16" />
  <line
     stroke="#777"
     stroke-width="3"
     x1="24"
     y1="28"
     x2="50"
     y2="28"
     id="line18" />
  <line
     stroke="#777"
     stroke-width="3"
     x1="24"
     y1="34"
     x2="50"
     y2="34"
     id="line20" />
  <line
     stroke="#777"
     stroke-width="3"
     x1="24"
     y1="40"
     x2="50"
     y2="40"
     id="line22" />
  <line
     stroke="#777"
     stroke-width="3"
     x1="24"
     y1="46"
     x2="50"
     y2="46"
     id="line24" />
  <line
     stroke="#777"
     stroke-width="3"
     x1="24"
     y1="52"
     x2="50"
     y2="52"
     id="line26" />
  <line
     stroke="#777"
     stroke-width="3"
     x1="24"
     y1="58"
     x2="50"
     y2="58"
     id="line28" />
  <line
     stroke="#777"
     stroke-width="3"
     x1="24"
     y1="64"
     x2="50"
     y2="64"
     id="line30" />
  <line
     stroke="#777"
     stroke-width="3"
     x1="24"
     y1="70"
     x2="50"
     y2="70"
     id="line32" />
  <line
     stroke="#777"
     stroke-width="3"
     x1="24"
     y1="76"
     x2="50"
     y2="76"
     id="line34" />
  <line
     stroke="#777"
     stroke-width="3"
     x1="24"
     y1="82"
     x2="50"
     y2="82"
     id="line36" />
  <line
     stroke="#777"
     stroke-width="3"
     x1="24"
     y1="88"
     x2="50"
     y2="88"
     id="line38" />
  <line
     stroke="#777"
     stroke-width="3"
     x1="24"
     y1="94"
     x2="50"
     y2="94"
     id="line40" />
  <line
     stroke="#777"
     stroke-width="3"
     x1="24"
     y1="100"
     x2="50"
     y2="100"
     id="line42" />
  <line
     stroke="#777"
     stroke-width="3"
     x1="24"
     y1="106"
     x2="50"
     y2="106"
     id="line44" />
  <line
     stroke="#777"
     stroke-width="3"
     x1="24"
     y1="112"
     x2="50"
     y2="112"
     id="line46" />
</svg>
