<?xml version="1.0" encoding="UTF-8" standalone="no"?>
<svg
   width="128"
   height="128"
   version="1.1"
   viewBox="0 0 128 128"
   id="svg48"
   sodipodi:docname="cartridge.svg"
   inkscape:version="1.2.1 (9c6d41e410, 2022-07-14)"
   xmlns:inkscape="http://www.inkscape.org/namespaces/inkscape"
   xmlns:sodipodi="http://sodipodi.sourceforge.net/DTD/sodipodi-0.dtd"
   xmlns="http://www.w3.org/2000/svg"
   xmlns:svg="http://www.w3.org/2000/svg">
  <defs
     id="defs52" />
  <sodipodi:namedview
     id="namedview50"
     pagecolor="#ffffff"
     bordercolor="#666666"
     borderopacity="1.0"
     inkscape:pageshadow="2"
     inkscape:pageopacity="0.0"
     inkscape:pagecheckerboard="0"
     showgrid="false"
     inkscape:zoom="2.8229029"
     inkscape:cx="-13.284198"
     inkscape:cy="66.243865"
     inkscape:window-width="1858"
     inkscape:window-height="1057"
     inkscape:window-x="54"
     inkscape:window-y="-8"
     inkscape:window-maximized="1"
     inkscape:current-layer="svg48"
     inkscape:showpageshadow="2"
     inkscape:deskcolor="#d1d1d1" />
  <path
     fill="#aaa"
     stroke="#777"
     stroke-linejoin="round"
     stroke-width="3"
     d="m10 4 h108 v100 h-6 v20 h-96 v-20 h-6 v-100 z"
     id="path2" />
  <path
     fill="#777"
     stroke="#777"
     stroke-linejoin="round"
     stroke-width="3"
     d="m60 94 h12 l-6 8 l-6 -8 z"
     id="path4" />
  <path
     fill="#777"
     stroke="#777"
     stroke-linejoin="round"
     stroke-width="3"
     d="m58 4 h44 v80 h-44 v-80 z"
     id="path6" />
  <line
     stroke="#777"
     stroke-width="3"
     x1="24"
     y1="4"
     x2="24"
     y2="124"
     id="line8" />
  <line
     stroke="#777"
     stroke-width="3"
     x1="50"
     y1="4"
     x2="50"
     y2="124"
     id="line10" />
  <line
     stroke="#777"
     stroke-width="3"
     x1="24"
     y1="10"
     x2="50"
     y2="10"
     id="line12" />
  <line
     stroke="#777"
     stroke-width="3"
     x1="24"
     y1="16"
     x2="50"
     y2="16"
     id="line14" />
  <line
     stroke="#777"
     stroke-width="3"
     x1="24"
     y1="22"
     x2="50"
     y2="22"
     id="line16" />
  <line
     stroke="#777"
     stroke-width="3"
     x1="24"
     y1="28"
     x2="50"
     y2="28"
     id="line18" />
  <line
     stroke="#777"
     stroke-width="3"
     x1="24"
     y1="34"
     x2="50"
     y2="34"
     id="line20" />
  <line
     stroke="#777"
     stroke-width="3"
     x1="24"
     y1="40"
     x2="50"
     y2="40"
     id="line22" />
  <line
     stroke="#777"
     stroke-width="3"
     x1="24"
     y1="46"
     x2="50"
     y2="46"
     id="line24" />
  <line
     stroke="#777"
     stroke-width="3"
     x1="24"
     y1="52"
     x2="50"
     y2="52"
     id="line26" />
  <line
     stroke="#777"
     stroke-width="3"
     x1="24"
     y1="58"
     x2="50"
     y2="58"
     id="line28" />
  <line
     stroke="#777"
     stroke-width="3"
     x1="24"
     y1="64"
     x2="50"
     y2="64"
     id="line30" />
  <line
     stroke="#777"
     stroke-width="3"
     x1="24"
     y1="70"
     x2="50"
     y2="70"
     id="line32" />
  <line
     stroke="#777"
     stroke-width="3"
     x1="24"
     y1="76"
     x2="50"
     y2="76"
     id="line34" />
  <line
     stroke="#777"
     stroke-width="3"
     x1="24"
     y1="82"
     x2="50"
     y2="82"
     id="line36" />
  <line
     stroke="#777"
     stroke-width="3"
     x1="24"
     y1="88"
     x2="50"
     y2="88"
     id="line38" />
  <line
     stroke="#777"
     stroke-width="3"
     x1="24"
     y1="94"
     x2="50"
     y2="94"
     id="line40" />
  <line
     stroke="#777"
     stroke-width="3"
     x1="24"
     y1="100"
     x2="50"
     y2="100"
     id="line42" />
  <line
     stroke="#777"
     stroke-width="3"
     x1="24"
     y1="106"
     x2="50"
     y2="106"
     id="line44" />
  <line
     stroke="#777"
     stroke-width="3"
     x1="24"
     y1="112"
     x2="50"
     y2="112"
     id="line46" />
  <g
     aria-label="RCBX"
     id="text186"
     style="font-weight:bold;font-size:17.3333px;font-family:Cabin;-inkscape-font-specification:'Cabin, Bold';fill:#666666">
    <path
       d="m 74.389461,118.67216 h -2.305328 l -2.513329,-4.50666 h -2.253329 v 4.50666 h -2.218662 v -12.13331 h 4.437324 q 4.177326,0 4.177326,3.50132 0,1.3 -0.537333,2.11467 -0.537332,0.81466 -1.52533,1.42133 z m -5.355989,-10.27865 h -1.715997 v 3.69199 h 1.62933 q 1.403998,0 1.923997,-0.468 0.519999,-0.48533 0.519999,-1.42133 0,-0.91866 -0.502666,-1.35199 -0.502666,-0.45067 -1.854663,-0.45067 z"
       id="path448" />
    <path
       d="m 81.201439,118.91482 q -1.299997,0 -2.409329,-0.45066 -1.091997,-0.45067 -1.889329,-1.28267 -0.797332,-0.83199 -1.247998,-1.99333 -0.433332,-1.16133 -0.433332,-2.58266 0,-1.42133 0.450665,-2.58266 0.450666,-1.16133 1.230665,-1.99333 0.797332,-0.832 1.889329,-1.28266 1.109332,-0.45067 2.409329,-0.45067 1.975996,0 3.449327,0.71067 l -0.242667,2.11466 q -1.715996,-0.69333 -3.20666,-0.69333 -0.866665,0 -1.52533,0.312 -0.658666,0.29466 -1.109331,0.84933 -0.450666,0.53733 -0.693332,1.31733 -0.225333,0.76266 -0.225333,1.69866 0,0.936 0.225333,1.716 0.242666,0.76266 0.693332,1.31733 0.450665,0.53733 1.109331,0.84933 0.658665,0.29467 1.52533,0.29467 1.490664,0 3.20666,-0.69333 l 0.242667,2.11466 q -1.473331,0.71066 -3.449327,0.71066 z"
       id="path450" />
    <path
       d="m 91.185407,118.67216 h -4.679991 v -12.13331 h 3.275993 q 1.057332,0 1.906663,0.12133 0.866665,0.104 1.473331,0.45067 0.606665,0.32933 0.935998,0.93599 0.329333,0.60667 0.329333,1.612 0,1.664 -1.022665,2.53066 1.091998,0.416 1.594663,1.092 0.519999,0.676 0.519999,1.82 0,1.00533 -0.381332,1.69866 -0.363999,0.676 -0.970665,1.092 -0.606665,0.416 -1.386664,0.60666 -0.779998,0.17334 -1.594663,0.17334 z m -0.502666,-10.24398 h -1.958663 v 2.98132 h 2.166662 q 0.589333,0 1.022665,-0.31199 0.450666,-0.32934 0.450666,-1.10934 0,-0.88399 -0.433333,-1.21333 -0.415999,-0.34666 -1.247997,-0.34666 z m 0.346666,4.73199 h -2.305329 v 3.62266 h 2.183996 q 1.143998,0 1.73333,-0.39867 0.589332,-0.416 0.589332,-1.404 0,-1.81999 -2.201329,-1.81999 z"
       id="path452" />
    <path
       d="m 106.61204,118.67216 h -2.56533 l -2.94666,-4.45466 -2.859994,4.45466 h -2.547995 l 4.281325,-6.04932 -4.090659,-6.08399 h 2.565329 l 2.807994,4.26399 2.56533,-4.26399 h 2.54799 l -3.98666,5.84132 z"
       id="path454" />
  </g>
</svg>
