<?xml version="1.0" encoding="UTF-8" standalone="no"?>
<svg
   width="128"
   height="128"
   version="1.1"
   viewBox="0 0 128 128"
   id="svg6"
   sodipodi:docname="folder.svg"
   inkscape:version="1.2.1 (9c6d41e410, 2022-07-14)"
   xmlns:inkscape="http://www.inkscape.org/namespaces/inkscape"
   xmlns:sodipodi="http://sodipodi.sourceforge.net/DTD/sodipodi-0.dtd"
   xmlns="http://www.w3.org/2000/svg"
   xmlns:svg="http://www.w3.org/2000/svg">
  <defs
     id="defs10" />
  <sodipodi:namedview
     id="namedview8"
     pagecolor="#ffffff"
     bordercolor="#666666"
     borderopacity="1.0"
     inkscape:pageshadow="2"
     inkscape:pageopacity="0.0"
     inkscape:pagecheckerboard="0"
     showgrid="false"
     inkscape:zoom="6.4921875"
     inkscape:cx="81.713598"
     inkscape:cy="64.385078"
     inkscape:window-width="1858"
     inkscape:window-height="1057"
     inkscape:window-x="54"
     inkscape:window-y="-8"
     inkscape:window-maximized="1"
     inkscape:current-layer="svg6"
     inkscape:showpageshadow="2"
     inkscape:deskcolor="#d1d1d1" />
  <path
     d="m10 19h38a6 6 90 0 1 6 6v6h64a6 6 90 0 1 6 6v66a6 6 90 0 1-6 6h-108a6 6 90 0 1-6-6v-78a6 6 90 0 1 6-6z"
     fill="#aaa"
     stroke="#aaa"
     stroke-linejoin="round"
     stroke-width="3"
     id="path2" />
  <path
     d="m10 35h108a6 6 90 0 1 6 6v62a6 6 90 0 1-6 6h-108a6 6 90 0 1-6-6v-62a6 6 90 0 1 6-6z"
     fill="#777"
     stroke="#777"
     stroke-linejoin="round"
     stroke-width="3"
     id="path4" />
  <g
     aria-label="RCBX"
     id="text165"
     style="font-weight:bold;font-size:17.3333px;font-family:Cabin;-inkscape-font-specification:'Cabin, Bold';fill:#808080">
    <path
       d="m 86.870796,105.20338 h -2.305329 l -2.513328,-4.50666 H 79.79881 v 4.50666 H 77.580147 V 93.070067 h 4.437325 q 4.177325,0 4.177325,3.501327 0,1.299997 -0.537332,2.114662 -0.537332,0.814665 -1.52533,1.421334 z M 81.514806,94.92473 H 79.79881 v 3.691993 h 1.62933 q 1.403997,0 1.923996,-0.467999 0.519999,-0.485333 0.519999,-1.421331 0,-0.918665 -0.502665,-1.351997 -0.502666,-0.450666 -1.854664,-0.450666 z"
       id="path271"
       style="fill:#808080" />
    <path
       d="m 93.682774,105.44604 q -1.299998,0 -2.409329,-0.45066 -1.091998,-0.45067 -1.88933,-1.28267 -0.797331,-0.832 -1.247997,-1.99333 -0.433333,-1.16133 -0.433333,-2.582658 0,-1.421331 0.450666,-2.582662 0.450666,-1.161331 1.230664,-1.993329 0.797332,-0.831999 1.88933,-1.282664 1.109331,-0.450666 2.409329,-0.450666 1.975996,0 3.449326,0.710665 l -0.242666,2.114663 q -1.715996,-0.693332 -3.20666,-0.693332 -0.866665,0 -1.525331,0.311999 -0.658665,0.294666 -1.109331,0.849332 -0.450666,0.537332 -0.693332,1.317331 -0.225333,0.762665 -0.225333,1.698663 0,0.935998 0.225333,1.715998 0.242666,0.76266 0.693332,1.31733 0.450666,0.53733 1.109331,0.84933 0.658666,0.29467 1.525331,0.29467 1.490664,0 3.20666,-0.69333 l 0.242666,2.11466 q -1.47333,0.71066 -3.449326,0.71066 z"
       id="path273"
       style="fill:#808080" />
    <path
       d="M 103.66674,105.20338 H 98.98675 V 93.070067 h 3.27599 q 1.05734,0 1.90667,0.121333 0.86666,0.104 1.47333,0.450666 0.60666,0.329333 0.936,0.935998 0.32933,0.606666 0.32933,1.611997 0,1.663997 -1.02267,2.530662 1.092,0.415999 1.59467,1.091998 0.52,0.675999 0.52,1.819999 0,1.00533 -0.38134,1.69866 -0.364,0.676 -0.97066,1.092 -0.60667,0.416 -1.38667,0.60666 -0.77999,0.17334 -1.59466,0.17334 z m -0.50266,-10.243983 h -1.95867 v 2.981327 h 2.16667 q 0.58933,0 1.02266,-0.311999 0.45067,-0.329333 0.45067,-1.109331 0,-0.883999 -0.43334,-1.213331 -0.416,-0.346666 -1.24799,-0.346666 z m 0.34666,4.73199 h -2.30533 v 3.622663 h 2.184 q 1.144,0 1.73333,-0.39867 0.58933,-0.416 0.58933,-1.404 0,-1.819993 -2.20133,-1.819993 z"
       id="path275"
       style="fill:#808080" />
    <path
       d="m 119.09337,105.20338 h -2.56532 l -2.94666,-4.45466 -2.86,4.45466 h -2.54799 l 4.28132,-6.049325 -4.09066,-6.083988 h 2.56533 l 2.808,4.263992 2.56532,-4.263992 h 2.548 l -3.98666,5.841322 z"
       id="path277"
       style="fill:#808080" />
  </g>
</svg>
