<?xml version="1.0" encoding="UTF-8" standalone="no"?>
<svg
   width="128"
   height="128"
   version="1.1"
   viewBox="0 0 128 128"
   id="svg6"
   sodipodi:docname="folder.svg"
   inkscape:version="1.2.1 (9c6d41e410, 2022-07-14)"
   xmlns:inkscape="http://www.inkscape.org/namespaces/inkscape"
   xmlns:sodipodi="http://sodipodi.sourceforge.net/DTD/sodipodi-0.dtd"
   xmlns="http://www.w3.org/2000/svg"
   xmlns:svg="http://www.w3.org/2000/svg">
  <defs
     id="defs10" />
  <sodipodi:namedview
     id="namedview8"
     pagecolor="#ffffff"
     bordercolor="#666666"
     borderopacity="1.0"
     inkscape:pageshadow="2"
     inkscape:pageopacity="0.0"
     inkscape:pagecheckerboard="0"
     showgrid="false"
     inkscape:zoom="6.4921875"
     inkscape:cx="81.482551"
     inkscape:cy="64.231047"
     inkscape:window-width="1858"
     inkscape:window-height="1057"
     inkscape:window-x="54"
     inkscape:window-y="-8"
     inkscape:window-maximized="1"
     inkscape:current-layer="svg6"
     inkscape:showpageshadow="2"
     inkscape:deskcolor="#d1d1d1" />
  <path
     d="m10 19h38a6 6 90 0 1 6 6v6h64a6 6 90 0 1 6 6v66a6 6 90 0 1-6 6h-108a6 6 90 0 1-6-6v-78a6 6 90 0 1 6-6z"
     fill="#aaa"
     stroke="#aaa"
     stroke-linejoin="round"
     stroke-width="3"
     id="path2" />
  <path
     d="m10 35h108a6 6 90 0 1 6 6v62a6 6 90 0 1-6 6h-108a6 6 90 0 1-6-6v-62a6 6 90 0 1 6-6z"
     fill="#777"
     stroke="#777"
     stroke-linejoin="round"
     stroke-width="3"
     id="path4" />
</svg>
