<?xml version="1.0" encoding="UTF-8" standalone="no"?>
<svg
   width="35"
   height="24"
   version="1.1"
   viewBox="0 0 26.25 18"
   id="svg159"
   sodipodi:docname="megadrive6.svg"
   inkscape:version="1.2.1 (9c6d41e410, 2022-07-14)"
   xmlns:inkscape="http://www.inkscape.org/namespaces/inkscape"
   xmlns:sodipodi="http://sodipodi.sourceforge.net/DTD/sodipodi-0.dtd"
   xmlns="http://www.w3.org/2000/svg"
   xmlns:svg="http://www.w3.org/2000/svg">
  <sodipodi:namedview
     id="namedview161"
     pagecolor="#ffffff"
     bordercolor="#000000"
     borderopacity="0.25"
     inkscape:showpageshadow="2"
     inkscape:pageopacity="0.0"
     inkscape:pagecheckerboard="0"
     inkscape:deskcolor="#d1d1d1"
     inkscape:document-units="pt"
     showgrid="false"
     inkscape:zoom="30.068571"
     inkscape:cx="17.875808"
     inkscape:cy="16.528886"
     inkscape:window-width="1858"
     inkscape:window-height="1057"
     inkscape:window-x="54"
     inkscape:window-y="-8"
     inkscape:window-maximized="1"
     inkscape:current-layer="svg159" />
  <defs
     id="defs71">
    <symbol
       id="w"
       overflow="visible">
      <path
         d="m 23.547,-1.4062 c -1.2109,0.625 -2.4766,1.1016 -3.7969,1.4219 -1.3125,0.32031 -2.6836,0.48438 -4.1094,0.48438 -4.2734,0 -7.6562,-1.1914 -10.156,-3.5781 -2.4922,-2.3828 -3.7344,-5.6172 -3.7344,-9.7031 0,-4.1016 1.2422,-7.3477 3.7344,-9.7344 2.5,-2.3828 5.8828,-3.5781 10.156,-3.5781 1.4258,0 2.7969,0.16406 4.1094,0.48438 1.3203,0.32422 2.5859,0.79688 3.7969,1.4219 v 5.3125 c -1.2188,-0.84375 -2.4297,-1.457 -3.625,-1.8438 -1.1875,-0.38281 -2.4375,-0.57812 -3.75,-0.57812 -2.3555,0 -4.2109,0.75781 -5.5625,2.2656 -1.3555,1.5117 -2.0312,3.5938 -2.0312,6.25 0,2.6367 0.67578,4.7109 2.0312,6.2188 1.3516,1.5117 3.207,2.2656 5.5625,2.2656 1.3125,0 2.5625,-0.19141 3.75,-0.57812 1.1953,-0.38281 2.4062,-1 3.625,-1.8438 z"
         id="path2" />
    </symbol>
    <symbol
       id="b"
       overflow="visible">
      <path
         d="m 17.234,-13.984 c -0.54297,-0.25781 -1.0781,-0.44531 -1.6094,-0.5625 -0.53125,-0.125 -1.0625,-0.1875 -1.5938,-0.1875 -1.5859,0 -2.8047,0.51172 -3.6562,1.5312 -0.85547,1.0117 -1.2812,2.4609 -1.2812,4.3438 V 4e-4 H 2.9528 v -19.219 h 6.1406 v 3.1562 c 0.78906,-1.2578 1.6953,-2.1758 2.7188,-2.75 1.0312,-0.58203 2.2578,-0.875 3.6875,-0.875 0.20703,0 0.42969,0.01172 0.67188,0.03125 0.23828,0.01172 0.58594,0.04687 1.0469,0.10938 z"
         id="path5" />
    </symbol>
    <symbol
       id="d"
       overflow="visible">
      <path
         d="m 22.141,-9.6719 v 1.7656 H 7.782 c 0.14453,1.4375 0.66016,2.5156 1.5469,3.2344 0.89453,0.71875 2.1445,1.0781 3.75,1.0781 1.2891,0 2.6133,-0.1875 3.9688,-0.5625 1.3633,-0.38281 2.7578,-0.96875 4.1875,-1.75 v 4.7344 c -1.4609,0.55469 -2.918,0.96875 -4.375,1.25 -1.4492,0.28125 -2.8984,0.42188 -4.3438,0.42188 -3.4805,0 -6.1836,-0.88281 -8.1094,-2.6562 -1.9297,-1.7695 -2.8906,-4.25 -2.8906,-7.4375 0,-3.1328 0.94141,-5.5977 2.8281,-7.3906 1.8945,-1.8008 4.5039,-2.7031 7.8281,-2.7031 3.0195,0 5.4375,0.91406 7.25,2.7344 1.8125,1.8125 2.7188,4.2422 2.7188,7.2812 z m -6.3125,-2.0312 c 0,-1.1641 -0.34375,-2.1094 -1.0312,-2.8281 -0.67969,-0.71875 -1.5625,-1.0781 -2.6562,-1.0781 -1.1992,0 -2.168,0.33984 -2.9062,1.0156 -0.74219,0.66797 -1.2031,1.6328 -1.3906,2.8906 z"
         id="path8" />
    </symbol>
    <symbol
       id="j"
       overflow="visible">
      <path
         d="m 11.562,-8.6562 c -1.2812,0 -2.2461,0.21875 -2.8906,0.65625 -0.64844,0.4375 -0.96875,1.0781 -0.96875,1.9219 0,0.78125 0.25781,1.3906 0.78125,1.8281 0.51953,0.4375 1.2422,0.65625 2.1719,0.65625 1.1562,0 2.1289,-0.41016 2.9219,-1.2344 0.78906,-0.83203 1.1875,-1.875 1.1875,-3.125 v -0.70312 z m 9.3906,-2.3125 V 3e-4 h -6.1875 v -2.8438 c -0.82422,1.168 -1.75,2.0156 -2.7812,2.5469 -1.0312,0.5313 -2.2891,0.79688 -3.7656,0.79688 -1.9922,0 -3.6055,-0.57812 -4.8438,-1.7344 -1.2422,-1.1641 -1.8594,-2.6758 -1.8594,-4.5312 0,-2.2578 0.76953,-3.9141 2.3125,-4.9688 1.5508,-1.0508 3.9883,-1.5781 7.3125,-1.5781 h 3.625 v -0.46875 c 0,-0.97656 -0.38672,-1.6914 -1.1562,-2.1406 -0.76172,-0.45703 -1.9531,-0.6875 -3.5781,-0.6875 -1.3242,0 -2.5547,0.13672 -3.6875,0.40625 -1.125,0.26172 -2.1797,0.65234 -3.1562,1.1719 v -4.6875 c 1.3203,-0.3125 2.6445,-0.55078 3.9688,-0.71875 1.332,-0.16406 2.6602,-0.25 3.9844,-0.25 3.4688,0 5.9688,0.68359 7.5,2.0469 1.5391,1.3672 2.3125,3.5898 2.3125,6.6719 z"
         id="path11" />
    </symbol>
    <symbol
       id="c"
       overflow="visible">
      <path
         d="m 9.6719,-24.688 v 5.4688 H 16 v 4.3906 H 9.6719 v 8.1562 c 0,0.88672 0.17578,1.4922 0.53125,1.8125 0.35156,0.3125 1.0547,0.46875 2.1094,0.46875 h 3.1562 v 4.3906 h -5.2656 c -2.4297,0 -4.1523,-0.50391 -5.1719,-1.5156 -1.0117,-1.0078 -1.5156,-2.7266 -1.5156,-5.1562 v -8.1562 h -3.0469 v -4.3906 h 3.0469 v -5.4688 z"
         id="path14" />
    </symbol>
    <symbol
       id="i"
       overflow="visible">
      <path
         d="m 16.031,-16.406 v -10.297 h 6.1875 V 0 H 16.031 v -2.7812 c -0.84375,1.1367 -1.7773,1.9688 -2.7969,2.5 -1.0234,0.51953 -2.1992,0.78125 -3.5312,0.78125 -2.375,0 -4.3242,-0.94141 -5.8438,-2.8281 -1.5234,-1.8828 -2.2812,-4.3047 -2.2812,-7.2656 0,-2.9688 0.75781,-5.3906 2.2812,-7.2656 1.5195,-1.8828 3.4688,-2.8281 5.8438,-2.8281 1.3203,0 2.4922,0.26562 3.5156,0.79688 1.0312,0.53125 1.9688,1.3594 2.8125,2.4844 z m -4.0469,12.438 c 1.3125,0 2.3125,-0.47656 3,-1.4375 0.69531,-0.95703 1.0469,-2.3516 1.0469,-4.1875 0,-1.832 -0.35156,-3.2266 -1.0469,-4.1875 -0.6875,-0.95703 -1.6875,-1.4375 -3,-1.4375 -1.3047,0 -2.3047,0.48047 -3,1.4375 -0.6875,0.96094 -1.0312,2.3555 -1.0312,4.1875 0,1.8359 0.34375,3.2305 1.0312,4.1875 0.69531,0.96094 1.6953,1.4375 3,1.4375 z"
         id="path17" />
    </symbol>
    <symbol
       id="e"
       overflow="visible">
      <path
         d="m 13.188,-3.9688 c 1.3125,0 2.3125,-0.47656 3,-1.4375 0.69531,-0.95703 1.0469,-2.3516 1.0469,-4.1875 0,-1.832 -0.35156,-3.2266 -1.0469,-4.1875 -0.6875,-0.95703 -1.6875,-1.4375 -3,-1.4375 -1.3242,0 -2.3398,0.48438 -3.0469,1.4531 -0.69922,0.96094 -1.0469,2.3516 -1.0469,4.1719 0,1.8242 0.34766,3.2188 1.0469,4.1875 0.70703,0.96094 1.7227,1.4375 3.0469,1.4375 z m -4.0938,-12.438 c 0.85156,-1.125 1.7891,-1.9531 2.8125,-2.4844 1.0312,-0.53125 2.2188,-0.79688 3.5625,-0.79688 2.3633,0 4.3047,0.94531 5.8281,2.8281 1.5312,1.875 2.2969,4.2969 2.2969,7.2656 0,2.9609 -0.76562,5.3828 -2.2969,7.2656 -1.5234,1.8867 -3.4648,2.8281 -5.8281,2.8281 -1.3438,0 -2.5312,-0.26562 -3.5625,-0.79688 -1.0234,-0.53125 -1.9609,-1.3594 -2.8125,-2.4844 v 2.7812 H 2.9536 v -26.703 h 6.1406 z"
         id="path20" />
    </symbol>
    <symbol
       id="h"
       overflow="visible">
      <path
         d="m 0.42188,-19.219 h 6.1562 l 5.1562,13.031 4.4062,-13.031 h 6.1406 l -8.0781,21.031 c -0.8125,2.1445 -1.7617,3.6445 -2.8438,4.5 -1.0859,0.85156 -2.5117,1.2812 -4.2812,1.2812 H 3.51548 V 3.5463 h 1.9219 c 1.0391,0 1.7969,-0.16797 2.2656,-0.5 0.47656,-0.32422 0.85156,-0.91797 1.125,-1.7812 L 8.99986,0.73385 Z"
         id="path23" />
    </symbol>
    <symbol
       id="g"
       overflow="visible">
      <path
         d="m 0.17188,-25.625 h 6.6406 l 6.7969,18.906 6.7812,-18.906 h 6.6406 L 17.54678,0 h -7.875 z"
         id="path26" />
    </symbol>
    <symbol
       id="v"
       overflow="visible">
      <path
         d="M 2.9531,-19.219 H 9.0937 V 0 H 2.9531 Z m 0,-7.4844 h 6.1406 v 5 H 2.9531 Z"
         id="path29" />
    </symbol>
    <symbol
       id="f"
       overflow="visible">
      <path
         d="m 2.9531,-26.703 h 6.1406 v 14.531 l 7.0781,-7.0469 h 7.1406 l -9.3906,8.8125 10.125,10.406 h -7.4531 l -7.5,-8.0156 V -4e-4 H 2.9531 Z"
         id="path32" />
    </symbol>
    <symbol
       id="a"
       overflow="visible">
      <path
         d="m 12.109,-15.297 c -1.3672,0 -2.4062,0.49219 -3.125,1.4688 -0.71875,0.98047 -1.0781,2.3906 -1.0781,4.2344 0,1.8438 0.35938,3.2578 1.0781,4.2344 0.71875,0.98047 1.7578,1.4688 3.125,1.4688 1.332,0 2.3516,-0.48828 3.0625,-1.4688 0.70703,-0.97656 1.0625,-2.3906 1.0625,-4.2344 0,-1.8438 -0.35547,-3.2539 -1.0625,-4.2344 -0.71094,-0.97656 -1.7305,-1.4688 -3.0625,-1.4688 z m 0,-4.3906 c 3.3008,0 5.8789,0.89844 7.7344,2.6875 1.8633,1.7812 2.7969,4.25 2.7969,7.4062 0,3.1562 -0.93359,5.6328 -2.7969,7.4219 -1.8555,1.7812 -4.4336,2.6719 -7.7344,2.6719 -3.3242,0 -5.9219,-0.89062 -7.7969,-2.6719 -1.8672,-1.7891 -2.7969,-4.2656 -2.7969,-7.4219 0,-3.1563 0.92969,-5.625 2.7969,-7.4062 1.875,-1.7891 4.4727,-2.6875 7.7969,-2.6875 z"
         id="path35" />
    </symbol>
    <symbol
       id="u"
       overflow="visible">
      <path
         d="m 3.2344,-25.625 h 6.6094 v 9.3438 l 9.5156,-9.3438 h 7.6719 L 14.6873,-13.5 28.3123,0 H 20.0311 L 9.8431,-10.094 V 0 H 3.2337 Z"
         id="path38" />
    </symbol>
    <symbol
       id="t"
       overflow="visible">
      <path
         d="m 0.53125,-19.219 h 6.1406 l 4.7969,13.281 4.7656,-13.281 h 6.1719 L 14.82815,0 h -6.75 z"
         id="path41" />
    </symbol>
    <symbol
       id="s"
       overflow="visible">
      <path
         d="m 15.609,-26.703 v 4.0312 h -3.4062 c -0.86719,0 -1.4688,0.15625 -1.8125,0.46875 -0.3437,0.3125 -0.51562,0.85938 -0.51562,1.6406 v 1.3438 h 5.25 v 4.3906 h -5.25 V -5e-5 h -6.1562 v -14.828 h -3.0469 v -4.3906 h 3.0469 v -1.3438 c 0,-2.0938 0.58203,-3.6406 1.75,-4.6406 1.1758,-1 2.9883,-1.5 5.4375,-1.5 z"
         id="path44" />
    </symbol>
    <symbol
       id="r"
       overflow="visible">
      <path
         d="m 20.766,-16.031 c 0.78125,-1.1875 1.7031,-2.0938 2.7656,-2.7188 1.0703,-0.625 2.2539,-0.9375 3.5469,-0.9375 2.207,0 3.8906,0.68359 5.0469,2.0469 1.1562,1.3555 1.7344,3.3359 1.7344,5.9375 V 1e-4 h -6.1875 v -10.031 c 0.0078,-0.14453 0.01563,-0.29688 0.01563,-0.45312 0.0078,-0.16406 0.01563,-0.39453 0.01563,-0.6875 0,-1.3633 -0.20312,-2.3516 -0.60938,-2.9688 -0.39844,-0.61328 -1.0391,-0.92188 -1.9219,-0.92188 -1.168,0 -2.0703,0.48438 -2.7031,1.4531 -0.63672,0.96094 -0.96875,2.3516 -1,4.1719 V 3e-4 h -6.1719 v -10.031 c 0,-2.125 -0.18359,-3.4922 -0.54688,-4.1094 -0.36719,-0.61328 -1.0234,-0.92188 -1.9688,-0.92188 -1.1797,0 -2.0898,0.48438 -2.7344,1.4531 -0.63672,0.96875 -0.95312,2.3555 -0.95312,4.1562 v 9.4531 h -6.1719 v -19.219 h 6.1719 v 2.8125 c 0.75781,-1.0938 1.6289,-1.9102 2.6094,-2.4531 0.97656,-0.55078 2.0547,-0.82812 3.2344,-0.82812 1.3203,0 2.4922,0.32422 3.5156,0.96875 1.0195,0.63672 1.7891,1.5312 2.3125,2.6875 z"
         id="path47" />
    </symbol>
    <symbol
       id="q"
       overflow="visible">
      <path
         d="M 22.281,-11.703 V 0 h -6.1719 v -8.9219 c 0,-1.6875 -0.04297,-2.8438 -0.125,-3.4688 -0.07422,-0.63281 -0.19922,-1.0977 -0.375,-1.3906 -0.24219,-0.40625 -0.57031,-0.71875 -0.98438,-0.9375 -0.41797,-0.22656 -0.88672,-0.34375 -1.4062,-0.34375 -1.2812,0 -2.293,0.5 -3.0312,1.5 -0.73047,0.99219 -1.0938,2.3594 -1.0938,4.1094 V -5e-5 h -6.1406 v -26.703 h 6.1406 v 10.297 c 0.92578,-1.125 1.9102,-1.9531 2.9531,-2.4844 1.0391,-0.53125 2.1914,-0.79688 3.4531,-0.79688 2.2188,0 3.8984,0.68359 5.0469,2.0469 1.1562,1.3555 1.7344,3.3359 1.7344,5.9375 z"
         id="path50" />
    </symbol>
    <symbol
       id="p"
       overflow="visible">
      <path
         d="m 3.2344,-25.625 h 7.375 l 9.3281,17.578 v -17.578 h 6.2656 V 0 H 18.8125 L 9.5,-17.578 V 0 H 3.2344 Z"
         id="path53" />
    </symbol>
    <symbol
       id="o"
       overflow="visible">
      <path
         d="m 2.75,-7.4844 v -11.734 h 6.1719 v 1.9219 c 0,1.043 -0.00781,2.3516 -0.015625,3.9219 -0.011719,1.5742 -0.015625,2.6211 -0.015625,3.1406 0,1.5547 0.035156,2.668 0.10938,3.3438 0.082031,0.67969 0.22266,1.1719 0.42188,1.4844 0.25,0.39844 0.57812,0.70312 0.98438,0.92188 0.40626,0.21876 0.875,0.32812 1.4062,0.32812 1.2812,0 2.2852,-0.48828 3.0156,-1.4688 0.73828,-0.98828 1.1094,-2.3594 1.1094,-4.1094 v -9.4844 h 6.1406 V 6e-4 h -6.1406 v -2.7812 c -0.92969,1.125 -1.9141,1.9531 -2.9531,2.4844 -1.0312,0.53125 -2.1719,0.79688 -3.4219,0.79688 -2.2188,0 -3.9141,-0.67969 -5.0781,-2.0469 -1.1562,-1.3633 -1.7344,-3.3438 -1.7344,-5.9375 z"
         id="path56" />
    </symbol>
    <symbol
       id="n"
       overflow="visible">
      <path
         d="M 22.281,-11.703 V 0 h -6.1719 v -8.9531 c 0,-1.6641 -0.04297,-2.8125 -0.125,-3.4375 -0.07422,-0.63281 -0.19922,-1.0977 -0.375,-1.3906 -0.24219,-0.40625 -0.57031,-0.71875 -0.98438,-0.9375 -0.41797,-0.22656 -0.88672,-0.34375 -1.4062,-0.34375 -1.2812,0 -2.293,0.5 -3.0312,1.5 -0.73047,0.99219 -1.0938,2.3594 -1.0938,4.1094 V 5e-5 h -6.1406 v -19.219 h 6.1406 v 2.8125 c 0.92578,-1.125 1.9102,-1.9531 2.9531,-2.4844 1.0391,-0.53125 2.1914,-0.79688 3.4531,-0.79688 2.2188,0 3.8984,0.68359 5.0469,2.0469 1.1562,1.3555 1.7344,3.3359 1.7344,5.9375 z"
         id="path59" />
    </symbol>
    <symbol
       id="m"
       overflow="visible">
      <path
         d="m 3.2344,-25.625 h 10.969 c 3.2578,0 5.7578,0.72656 7.5,2.1719 1.75,1.4492 2.625,3.5117 2.625,6.1875 0,2.6875 -0.875,4.7578 -2.625,6.2031 -1.7422,1.4492 -4.2422,2.1719 -7.5,2.1719 H 9.844 V 0 H 3.2346 Z m 6.6094,4.7812 v 7.1562 H 13.5 c 1.2812,0 2.2695,-0.30469 2.9688,-0.92188 0.69531,-0.625 1.0469,-1.5078 1.0469,-2.6562 0,-1.1445 -0.35156,-2.0234 -1.0469,-2.6406 -0.69922,-0.625 -1.6875,-0.9375 -2.9688,-0.9375 z"
         id="path62" />
    </symbol>
    <symbol
       id="l"
       overflow="visible">
      <path
         d="m 2.9531,-19.219 h 6.1406 v 18.875 c 0,2.5703 -0.62109,4.5352 -1.8594,5.8906 C 6.0038,6.9099 4.2187,7.5935 1.8749,7.5935 H -1.172 V 3.5466 h 1.0625 c 1.1641,0 1.9688,-0.26562 2.4062,-0.79688 0.4375,-0.52344 0.65625,-1.5547 0.65625,-3.0938 z m 0,-7.4844 h 6.1406 v 5 H 2.9531 Z"
         id="path65" />
    </symbol>
    <symbol
       id="k"
       overflow="visible">
      <path
         d="m 18.484,-18.625 v 5.0156 c -0.83594,-0.57031 -1.6719,-0.99219 -2.5156,-1.2656 -0.83594,-0.28125 -1.7031,-0.42188 -2.6094,-0.42188 -1.7188,0 -3.0586,0.5 -4.0156,1.5 -0.96094,1 -1.4375,2.4023 -1.4375,4.2031 0,1.793 0.47656,3.1953 1.4375,4.2031 0.95703,1 2.2969,1.5 4.0156,1.5 0.95703,0 1.8672,-0.14062 2.7344,-0.42188 0.86328,-0.28906 1.6602,-0.71875 2.3906,-1.2812 v 5.0312 c -0.96094,0.35547 -1.9336,0.61719 -2.9219,0.79688 -0.99219,0.17578 -1.9844,0.26562 -2.9844,0.26562 -3.4688,0 -6.1836,-0.89062 -8.1406,-2.6719 -1.9492,-1.7812 -2.9219,-4.2539 -2.9219,-7.4219 0,-3.1641 0.97266,-5.6406 2.9219,-7.4219 1.957,-1.7812 4.6719,-2.6719 8.1406,-2.6719 1.0078,0 2.0039,0.08984 2.9844,0.26562 0.97656,0.17969 1.9531,0.44531 2.9219,0.79688 z"
         id="path68" />
    </symbol>
  </defs>
  <ellipse
     style="fill:#000000;stroke-width:0.762689"
     id="path530"
     cx="13.428144"
     cy="8.7821131"
     rx="2.2240334"
     ry="0.77123731" />
  <ellipse
     style="fill:#000000;stroke-width:0.827419"
     id="path532"
     cx="20.136114"
     cy="9.6430302"
     rx="5.3448544"
     ry="5.0758171" />
  <ellipse
     style="fill:#000000;stroke-width:0.762689"
     id="path526"
     cx="13.23085"
     cy="3.8318453"
     rx="5.3269181"
     ry="1.5604104" />
  <ellipse
     style="fill:#000000;stroke-width:0.859531"
     id="path534"
     cx="6.3547153"
     cy="9.4741783"
     rx="5.1228833"
     ry="5.2656822" />
  <g
     id="g157"
     transform="matrix(0.03719868,0,0,0.03719868,0.11588341,-2.3759921)"
     style="fill:#ffffff">
    <path
       d="m 367.69,123.3 c -3.7344,0.0352 -6.0547,0.29688 -7.125,0.76172 -0.30469,-0.0156 -0.625,-0.043 -0.91406,-0.0547 -2.2031,-0.0742 -4.3945,-0.10938 -6.5898,0.0898 -0.96875,0.21484 -1.9062,0.55469 -2.8594,0.83594 -0.42578,-0.0195 -0.84766,-0.0977 -1.2734,-0.11328 -1.8828,-0.004 -3.7383,0 -5.6094,-0.22266 -2.3633,-0.33203 -4.7461,-0.48828 -7.125,-0.57031 -2.3945,-0.0625 -4.7891,-0.0664 -7.1836,-0.0664 -1.7422,0.13672 -3.7188,0.0742 -5.4727,0.54688 h -0.4375 c -26.078,-0.22656 -104.95,15.461 -141.3,28.105 -39.855,13.863 -83.203,38.977 -109.47,63.414 -24.277,22.586 -36.992,39.461 -49.461,65.672 -22.824,47.977 -28.312,88.371 -17.57,129.38 10.93,41.727 41.57,69.855 80.75,74.148 23.488,2.5742 34.305,0.0469 101.05,-23.625 48.863,-17.328 79.461,-23.297 133.48,-26.039 9.2969,-0.47266 14.176,-0.82813 15.09,-1.4648 1.9688,0.0859 3.9414,0.17969 5.9102,0.3125 0.45703,0.0508 0.90625,0.14453 1.3633,0.19141 1.8281,0.15234 3.6641,0.16797 5.4961,0.17969 1.6641,0.004 3.3281,0 4.9922,0 0.99219,0 1.9805,0.0117 2.9727,0.0117 0.0898,0.008 0.17969,-0.0156 0.26953,-0.0117 h 2.3125 c 1.9492,0.14844 3.8477,-0.26953 5.7539,-0.59375 0.24609,-0.0547 0.29297,-0.0977 0.50391,-0.14453 0.48438,-0.0156 0.96484,-0.0703 1.4531,-0.0781 1.6367,-0.0156 3.2773,-0.0117 4.9141,-0.0117 0.74609,-0.0273 1.5039,-0.008 2.2578,-0.0117 l 4.6367,0.27734 c 61.176,3.6602 86.648,9.0273 149,31.355 36.066,12.914 48.758,16.746 61.191,18.488 19.012,2.6641 38.02,-0.60938 56.801,-9.7617 9.2227,-4.4961 13.797,-7.8828 22.477,-16.668 5.9922,-6.0664 12.961,-14.543 15.48,-18.844 14.129,-24.094 20.121,-64.457 14.434,-97.238 -4.8672,-28.047 -21.547,-68.336 -37.766,-91.23 -22.211,-31.348 -58.43,-60.129 -104.53,-83.074 -22.453,-11.176 -38.797,-17.121 -67.168,-24.43 -43.953,-11.32 -80.102,-17.672 -109.38,-19.203 -4.6055,-0.24219 -8.3789,-0.33984 -11.328,-0.3125 z m -39.363,2.4375 c 0.0859,0.0195 0.26953,0.62109 0.45703,1.1836 h -0.0352 c -0.19922,-0.0469 -0.40234,-0.0625 -0.60156,-0.11328 -0.0586,-0.0117 -0.0898,0.004 -0.17969,-0.0234 l 0.0117,-0.0117 c 0.14062,-0.36719 0.17969,-1.0781 0.34766,-1.0391 z m 37.422,3.1953 c 25.949,0.34766 48.641,2.7148 69.582,6.8477 20.941,4.1328 40.137,10.027 46.426,16.832 6.2891,6.8086 -0.32422,14.523 -12.723,16.453 -12.398,1.9297 -30.586,-1.9297 -51.25,-4.9609 -20.664,-3.0312 -43.812,-5.2305 -65.301,-5.5078 -21.492,-0.27734 -41.328,1.375 -59.238,3.8555 -17.91,2.4805 -33.895,5.7852 -46.57,3.3047 -12.676,-2.4805 -22.043,-10.742 -15.707,-17.348 6.3398,-6.6055 28.375,-11.551 54.008,-14.855 25.633,-3.3086 54.824,-4.9727 80.773,-4.625 z m -174.76,58.855 c 5.0859,0.0781 9.9961,0.44141 14.609,1.0625 18.461,2.4805 32.781,9.0938 44.906,19.84 12.125,10.7462 22.043,25.621 27.57,43.531 5.5273,17.91 6.6055,37.754 1.9219,60.074 -4.6836,22.32 -15.156,46.57 -30.039,66.406 -14.879,19.84 -34.164,35.27 -53.73,44.637 -19.562,9.3672 -39.406,12.668 -60.207,12.254 -20.805,-0.41406 -42.562,-4.5469 -58.129,-14.051 -15.57,-9.5078 -24.945,-24.383 -30.73,-38.023 -5.785,-13.64 -7.9922,-26.039 -7.8516,-42.984 0.13672,-16.945 2.6172,-38.434 10.746,-57.996 8.1289,-19.562 21.914,-37.203 38.168,-52.355 16.258,-15.152 34.992,-27.832 55.383,-34.973 15.293,-5.3594 32.133,-7.6523 47.387,-7.418 z m 325.68,4.2578 c 15.254,-0.23438 32.09,2.0586 47.387,7.418 20.391,7.1445 39.137,19.82 55.395,34.973 16.258,15.153 30.031,32.793 38.156,52.355 3.2539,7.8281 5.5703,15.953 7.2266,23.984 v -0.004 c 2.9258,4.8711 4.4805,10.441 4.4922,16.121 -0.0117,3.0703 -0.46875,6.1211 -1.3633,9.0586 0.16406,2.9961 0.36719,6.0547 0.39062,8.8359 0.13672,16.945 -2.0664,29.344 -7.8516,42.984 -5.7852,13.64 -15.148,28.52 -30.719,38.023 -15.57,9.5078 -37.34,13.641 -58.141,14.051 -20.805,0.41406 -40.645,-2.8945 -60.207,-12.266 -1.0156,-0.48438 -2.0234,-1.0547 -3.0391,-1.5742 h -0.004 c -10.887,-0.78125 -20.59,-7.1602 -25.625,-16.844 -9.1094,-7.5 -17.637,-16.312 -25.066,-26.219 -14.879,-19.84 -25.352,-44.078 -30.039,-66.398 -4.6836,-22.32 -3.6055,-42.164 1.9219,-60.074 5.5273,-17.91 15.445,-32.785 27.57,-43.531 12.125,-10.746 26.445,-17.359 44.906,-19.84 4.6133,-0.62109 9.5273,-0.98438 14.609,-1.0625 z m -327.78,4.6016 c -14.312,-0.21875 -30.117,1.9297 -44.469,6.9609 -19.137,6.7031 -36.719,18.598 -51.977,32.82 -15.258,14.223 -28.184,30.77 -35.812,49.129 -7.6289,18.359 -9.957,38.531 -10.086,54.434 -0.12891,15.902 1.9414,27.535 7.3711,40.336 5.4297,12.801 14.219,26.77 28.832,35.688 14.609,8.9219 35.031,12.793 54.555,13.18 19.523,0.38672 38.141,-2.7148 56.5,-11.504 18.359,-8.793 36.461,-23.27 50.422,-41.891 13.965,-18.617 23.785,-41.375 28.184,-62.32 4.3945,-20.945 3.3984,-39.559 -1.7891,-56.367 -5.1875,-16.808 -14.492,-30.777 -25.871,-40.859 -11.379,-10.086 -24.832,-16.281 -42.156,-18.609 -4.332,-0.58203 -8.9336,-0.92188 -13.707,-0.99609 z m 330.07,2.3906 c -4.7695,0.0742 -9.375,0.41406 -13.707,0.99609 -17.324,2.3281 -30.77,8.5352 -42.145,18.621 -11.379,10.086 -20.684,24.043 -25.871,40.852 -5.187,16.809 -6.1953,35.43 -1.7969,56.379 4.3945,20.945 14.219,43.703 28.184,62.32 4.7734,6.3633 10.055,12.191 15.637,17.527 l -0.004,-0.008 c -0.0234,-0.35156 -0.043,-0.69922 -0.0547,-1.0508 0,-8.332 3.3086,-16.32 9.1992,-22.211 5.8906,-5.8906 13.883,-9.1992 22.211,-9.1992 8.332,0 16.32,3.3086 22.211,9.1992 5.8906,5.8906 9.2031,13.879 9.2031,22.211 -0.004,6.2227 -1.8594,12.305 -5.3242,17.473 -3.4688,5.1719 -8.3906,9.1914 -14.148,11.559 15.613,6 31.473,8.2148 47.988,7.8867 19.523,-0.38672 39.945,-4.2695 54.555,-13.191 14.609,-8.9219 23.402,-22.879 28.832,-35.68 4.75,-11.199 6.8203,-21.672 7.2031,-34.73 l 0.004,0.004 c -5.9453,6.5508 -14.375,10.297 -23.223,10.309 -8.332,0 -16.32,-3.3086 -22.211,-9.1992 -5.8906,-5.8906 -9.2031,-13.883 -9.2031,-22.211 0,-8.332 3.3125,-16.32 9.2031,-22.211 5.8906,-5.8906 13.879,-9.2031 22.211,-9.2031 6.3633,0.0117 12.57,1.957 17.805,5.5742 -1.2422,-4.4141 -2.7188,-8.8125 -4.5,-13.102 -7.6289,-18.359 -20.555,-34.918 -35.812,-49.137 -15.258,-14.223 -32.84,-26.113 -51.977,-32.82 -14.352,-5.0273 -30.156,-7.1797 -44.469,-6.9609 z m -372.05,46.848 c 21.484,0 42.09,8.5352 57.281,23.727 15.191,15.1918 23.727,35.797 23.727,57.281 0,21.484 -8.5352,42.086 -23.727,57.281 -15.191,15.191 -35.797,23.727 -57.281,23.727 -16.922,-0.0234 -33.41,-5.3438 -47.152,-15.215 -13.742,-9.8672 -24.051,-23.797 -29.477,-39.824 0.40234,0.28125 0.875,0.48047 1.4062,0.48047 h 47.117 v 47.117 c 0,1.375 1.1055,2.4805 2.4805,2.4805 h 47.941 c 1.375,0 2.4805,-1.1055 2.4805,-2.4805 v -47.117 h 47.117 c 1.375,0 2.4805,-1.1055 2.4805,-2.4805 v -47.941 c 0,-1.375 -1.1055,-2.4805 -2.4805,-2.4805 h -47.117 v -47.117 c 0,-1.375 -1.1055,-2.4805 -2.4805,-2.4805 h -47.941 c -1.375,0 -2.4805,1.1055 -2.4805,2.4805 v 47.117 h -47.117 c -0.54297,0 -1.0234,0.21094 -1.4297,0.50391 5.4258,-16.035 15.734,-29.969 29.48,-39.844 13.75,-9.875 30.246,-15.195 47.172,-15.215 z m 438.1,3.3047 c 5.7031,0 11.168,2.2656 15.199,6.2969 4.0312,4.0273 6.293,9.4961 6.293,15.195 0,5.6992 -2.2617,11.168 -6.293,15.199 -4.0312,4.0273 -9.4961,6.293 -15.199,6.293 -5.6992,0 -11.164,-2.2656 -15.195,-6.293 -4.0312,-4.0312 -6.293,-9.5 -6.293,-15.199 0,-5.6992 2.2617,-11.168 6.293,-15.195 4.0312,-4.0312 9.4961,-6.2969 15.195,-6.2969 z m -47.941,24.797 v 0.004 c 5.6992,0 11.168,2.2617 15.195,6.293 4.0312,4.0312 6.2969,9.4961 6.2969,15.195 0,5.7031 -2.2656,11.168 -6.2969,15.199 -4.0273,4.0312 -9.4961,6.293 -15.195,6.293 -5.6992,0 -11.168,-2.2617 -15.195,-6.293 -4.0312,-4.0312 -6.2969,-9.4961 -6.2969,-15.199 0,-5.6992 2.2656,-11.164 6.2969,-15.195 4.0273,-4.0312 9.4961,-6.293 15.195,-6.293 z m -339.6,1.3945 -19.547,5.2383 14.309,14.32 z m -104.54,0.33594 5.2383,19.559 14.32,-14.309 z m 226.75,13.148 h 66.129 c 4.1211,0 7.4414,3.3164 7.4414,7.4414 v 4.9609 c 0,4.1211 -3.3164,7.4414 -7.4414,7.4414 h -66.129 c -4.1211,0 -7.4414,-3.3164 -7.4414,-7.4414 v -4.9609 c 0,-4.1211 3.3164,-7.4414 7.4414,-7.4414 z m 169.45,9.918 v 0.004 c 5.7031,0 11.168,2.2656 15.199,6.293 4.0312,4.0312 6.293,9.5 6.293,15.199 0,5.6992 -2.2617,11.164 -6.293,15.195 -4.0313,4.031 -9.4961,6.2969 -15.199,6.2969 -5.6992,0 -11.164,-2.2656 -15.195,-6.2969 -4.031,-4.0313 -6.293,-9.4961 -6.293,-15.195 0,-5.6992 2.2617,-11.168 6.293,-15.199 4.0312,-4.0273 9.4961,-6.293 15.195,-6.293 z m -419.91,5.3984 v 45.453 c -2.1797,-7.3867 -3.293,-15.043 -3.3086,-22.742 0.01953,-7.6875 1.1328,-15.336 3.3086,-22.711 z m 75.223,2.8711 h -0.004 c 5.043,0 9.8789,2.0039 13.445,5.5703 3.5664,3.5625 5.5664,8.3984 5.5664,13.441 0,5.0426 -2,9.8789 -5.5664,13.445 -3.5664,3.5625 -8.4023,5.5664 -13.445,5.5664 -5.043,0 -9.8789,-2.0039 -13.441,-5.5664 -3.5664,-3.5664 -5.5703,-8.4023 -5.5703,-13.445 0,-5.0427 2.0039,-9.8789 5.5703,-13.441 3.5625,-3.5664 8.3984,-5.5703 13.441,-5.5703 z m 430.66,21.492 h -0.004 c 8.332,0 16.32,3.3086 22.211,9.1992 5.8906,5.8906 9.1992,13.883 9.1992,22.211 0,8.332 -3.3086,16.32 -9.1992,22.211 -5.8906,5.8906 -13.879,9.1992 -22.211,9.1992 -8.332,0 -16.32,-3.3086 -22.211,-9.1992 -5.8906,-5.8906 -9.1992,-13.879 -9.1992,-22.211 0,-8.3281 3.3086,-16.32 9.1992,-22.211 5.8906,-5.8906 13.879,-9.1992 22.211,-9.1992 z m -477.69,29.668 -5.2383,19.559 19.559,-5.25 z m 94.078,0.33594 -14.32,14.32 19.559,5.2383 z"
       id="path73"
       style="fill:#ffffff" />
  </g>
</svg>
