<?xml version="1.0" encoding="UTF-8" standalone="no"?>
<!-- Generator: Adobe Illustrator 16.0.0, SVG Export Plug-In . SVG Version: 6.00 Build 0)  -->

<svg
   version="1.1"
   id="Capa_1"
   x="0px"
   y="0px"
   width="24"
   height="24"
   viewBox="0 0 24 23.999999"
   xml:space="preserve"
   sodipodi:docname="n64.svg"
   inkscape:version="1.2.1 (9c6d41e410, 2022-07-14)"
   xmlns:inkscape="http://www.inkscape.org/namespaces/inkscape"
   xmlns:sodipodi="http://sodipodi.sourceforge.net/DTD/sodipodi-0.dtd"
   xmlns="http://www.w3.org/2000/svg"
   xmlns:svg="http://www.w3.org/2000/svg"><defs
   id="defs69" /><sodipodi:namedview
   id="namedview67"
   pagecolor="#ffffff"
   bordercolor="#000000"
   borderopacity="0.25"
   inkscape:showpageshadow="2"
   inkscape:pageopacity="0.0"
   inkscape:pagecheckerboard="0"
   inkscape:deskcolor="#d1d1d1"
   showgrid="false"
   inkscape:zoom="32"
   inkscape:cx="14.171875"
   inkscape:cy="11.65625"
   inkscape:window-width="1858"
   inkscape:window-height="1057"
   inkscape:window-x="54"
   inkscape:window-y="-8"
   inkscape:window-maximized="1"
   inkscape:current-layer="Capa_1" />
<g
   id="g34"
   transform="matrix(0.0339978,0,0,0.0339978,1.8806325,2.2257373)">
	<g
   id="g32">
		<path
   d="m 402.372,186.217 c -10.973,0 -19.896,8.923 -19.896,19.896 0,10.973 8.923,19.902 19.896,19.902 10.967,0 19.896,-8.929 19.896,-19.902 0,-10.973 -8.923,-19.896 -19.896,-19.896 z"
   id="path2"
   style="fill:#333333" />
		<path
   d="m 360.364,67.14 c -2.705,-1.499 -5.654,-2.025 -8.715,-2.025 -38.745,0 -77.497,0 -116.243,0 -1.72,0 -3.421,0.159 -5.085,0.606 -3.709,0.991 -6.732,2.962 -8.807,6.249 -1.965,3.121 -2.577,6.548 -2.038,10.159 0.747,4.988 3.403,8.617 7.944,10.832 2.515,1.23 5.208,1.634 7.98,1.634 19.382,0 38.764,0 58.14,0 19.37,0 38.733,0 58.103,0 1.652,0 3.286,-0.141 4.896,-0.539 3.5,-0.869 6.426,-2.625 8.543,-5.587 2.332,-3.274 3.085,-6.953 2.51,-10.888 -0.685,-4.645 -3.109,-8.152 -7.228,-10.441 z M 249.366,88.976 c -0.349,0 -0.679,0 -1.004,0 -1.395,0 -2.797,-0.012 -4.192,0.006 -0.306,0.006 -0.465,-0.098 -0.625,-0.355 -2.466,-3.99 -4.939,-7.974 -7.417,-11.958 -0.08,-0.129 -0.165,-0.257 -0.251,-0.386 -0.037,0.006 -0.067,0.012 -0.104,0.024 0,2.099 0,4.198 0,6.297 0,2.105 0,4.21 0,6.347 -1.879,0 -3.715,0 -5.594,0 0,-6.083 0,-12.167 0,-18.299 0.147,0 0.288,0 0.422,0 1.585,0 3.164,0.012 4.75,-0.006 0.336,-0.006 0.532,0.086 0.716,0.392 2.436,3.979 4.89,7.938 7.344,11.91 0.08,0.135 0.166,0.263 0.337,0.379 0,-4.21 0,-8.421 0,-12.65 1.903,0 3.739,0 5.606,0 0.012,6.096 0.012,12.179 0.012,18.299 z m 3.225,-18.33 c 0.918,0 1.824,0 2.729,0 0.894,0 1.793,0 2.724,0 0,1.218 0,2.424 0,3.666 -1.793,0 -3.605,0 -5.453,0 0,-1.217 0,-2.417 0,-3.666 z m 5.471,18.306 c -1.817,0 -3.611,0 -5.44,0 0,-4.033 0,-8.06 0,-12.112 1.812,0 3.611,0 5.44,0 0,4.057 0,8.072 0,12.112 z m 19.126,0 c -1.787,0 -3.562,0 -5.404,0 0,-0.147 0,-0.3 0,-0.453 0,-2.411 0,-4.822 0,-7.234 0,-1.261 -0.765,-2.24 -1.946,-2.491 -1.273,-0.269 -2.595,0.343 -3.066,1.457 -0.135,0.318 -0.178,0.692 -0.184,1.034 -0.012,2.399 0,4.798 0.006,7.197 0,0.153 0,0.312 0,0.49 -1.842,0 -3.604,0 -5.404,0 0,-4.039 0,-8.066 0,-12.118 1.781,0 3.556,0 5.398,0 0,0.379 0,0.759 0,1.236 0.196,-0.159 0.312,-0.239 0.416,-0.331 2.516,-2.111 6.365,-1.946 8.635,0.367 1.059,1.083 1.53,2.423 1.555,3.905 0.037,2.252 0.012,4.51 0.012,6.762 0.006,0.062 -0.012,0.111 -0.018,0.179 z m 8.592,-0.007 c -1.842,0 -3.647,0 -5.514,0 0,-4.033 0,-8.072 0,-12.142 -1.01,0 -1.964,0 -2.987,0 0,-0.563 -0.012,-1.095 0.019,-1.628 0,-0.061 0.214,-0.147 0.336,-0.153 0.857,-0.012 1.714,-0.006 2.62,-0.006 0,-0.82 0,-1.616 0,-2.442 1.848,0 3.647,0 5.508,0 0,0.802 0,1.585 0,2.424 0.998,0 1.965,0 2.956,0 0,0.624 0,1.193 0,1.799 -0.985,0 -1.94,0 -2.932,0 -0.006,4.058 -0.006,8.085 -0.006,12.148 z m 8.238,-2.546 c 0.172,1.181 1.157,1.854 2.326,1.812 1.07,-0.043 1.939,-0.856 2.099,-2.007 0.067,-0.465 0.073,-0.942 0.116,-1.462 0.894,0 1.781,0 2.675,0 0.881,0 1.763,0 2.705,0 -0.073,0.202 -0.123,0.373 -0.196,0.532 -0.954,2.056 -2.601,3.335 -4.719,3.978 -3.065,0.937 -5.96,0.539 -8.506,-1.481 -1.702,-1.347 -2.589,-3.134 -2.436,-5.349 0.117,-1.708 0.906,-3.097 2.167,-4.21 1.891,-1.665 4.131,-2.301 6.621,-2.124 2.143,0.153 4.009,0.942 5.533,2.479 1.193,1.206 1.909,2.889 1.848,4.364 -3.457,0 -6.891,0 -10.416,0 0.054,1.192 0.018,2.349 0.183,3.468 z m 27.986,2.546 c -1.775,0 -3.544,0 -5.368,0 -0.012,-0.153 -0.03,-0.318 -0.03,-0.483 0,-2.375 0,-4.749 0,-7.118 0,-1.254 -0.587,-2.124 -1.677,-2.491 -1.102,-0.373 -2.35,0 -3.054,0.912 -0.331,0.422 -0.465,0.899 -0.465,1.438 0.006,2.399 0.006,4.798 0.006,7.197 0,0.171 0,0.343 0,0.544 -1.812,0 -3.593,0 -5.404,0 0,-4.027 0,-8.054 0,-12.105 1.793,0 3.562,0 5.398,0 0,0.386 0,0.771 0,1.273 0.208,-0.171 0.324,-0.27 0.44,-0.367 2.662,-2.222 6.787,-1.897 8.923,0.71 0.753,0.918 1.193,1.977 1.218,3.151 0.049,2.375 0.03,4.743 0.043,7.118 0.001,0.062 -0.018,0.124 -0.03,0.221 z m 17.356,0.007 c -1.787,0 -3.562,0 -5.367,0 -0.018,-0.202 -0.036,-0.404 -0.055,-0.667 -1.854,1.077 -3.782,1.353 -5.796,0.661 -1.321,-0.453 -2.368,-1.303 -3.17,-2.442 -1.53,-2.167 -1.506,-5.159 0.067,-7.375 0.661,-0.93 1.487,-1.665 2.516,-2.179 1.016,-0.508 2.087,-0.698 3.213,-0.624 1.145,0.073 2.154,0.52 3.2,1.089 0,-1.175 0,-2.277 0,-3.378 0,-1.107 0,-2.215 0,-3.366 1.818,0 3.593,0 5.392,0 0,6.096 0,12.179 0,18.281 z m 15.484,-1.23 c -1.628,1.328 -3.52,1.909 -5.784,1.916 -2.031,-0.025 -4.021,-0.68 -5.679,-2.173 -2.901,-2.619 -2.864,-6.793 0.067,-9.376 3.176,-2.791 8.402,-2.815 11.561,-0.055 3.116,2.723 3.041,7.074 -0.165,9.688 z"
   id="path4"
   style="fill:#333333" />
		<path
   d="m 440.303,228.139 c -10.973,0 -19.896,8.923 -19.896,19.896 0,10.973 8.923,19.896 19.896,19.896 10.968,0 19.896,-8.923 19.896,-19.896 0,-10.973 -8.922,-19.896 -19.896,-19.896 z"
   id="path6"
   style="fill:#333333" />
		<path
   d="M 535.017,94.319 V 76.351 C 498.082,47.403 414.734,45.904 414.734,45.904 l -4.485,-6.983 C 358.822,7.77 294.703,9.93 293.516,9.973 292.335,9.93 228.209,7.77 176.789,38.92 l -4.492,6.989 c 0,0 -83.348,1.5 -120.282,30.447 v 17.969 c 0,0 -41.09,36.267 -41.09,81.518 0,45.251 -30.612,188.325 10.649,266.844 41.255,78.514 77.853,-61.23 81.849,-87.18 3.997,-25.948 17.968,-57.895 26.616,-62.552 0,0 76.524,-5.325 79.854,54.565 3.323,59.854 24.927,226.703 83.569,229.567 v 0.013 c 0.019,0 0.036,-0.007 0.055,-0.007 0.019,0 0.037,0.007 0.056,0.007 v -0.013 c 58.641,-2.87 80.245,-169.72 83.568,-229.567 3.329,-59.89 79.854,-54.565 79.854,-54.565 8.653,4.657 22.626,36.597 26.616,62.552 3.99,25.955 40.594,165.699 81.849,87.174 41.255,-78.526 10.648,-221.593 10.648,-266.844 0.005,-45.251 -41.091,-81.518 -41.091,-81.518 z m -373.969,98.483 c 0,4.988 -4.058,9.052 -9.051,9.052 H 130.1 v 21.891 c 0,4.988 -4.058,9.051 -9.051,9.051 h -15.967 c -4.988,0 -9.051,-4.058 -9.051,-9.051 V 201.854 H 74.132 c -4.988,0 -9.052,-4.064 -9.052,-9.052 v -15.967 c 0,-4.988 4.058,-9.052 9.052,-9.052 H 96.03 v -21.891 c 0,-4.988 4.057,-9.051 9.051,-9.051 h 15.967 c 4.988,0 9.051,4.057 9.051,9.051 v 21.891 h 21.897 c 4.988,0 9.051,4.058 9.051,9.052 v 15.967 z m 324.176,-78.085 c 11.047,0 20.031,8.984 20.031,20.024 0,11.041 -8.984,20.025 -20.031,20.025 -11.04,0 -20.024,-8.984 -20.024,-20.025 0,-11.04 8.977,-20.024 20.024,-20.024 z m -33.941,33.935 c 11.047,0 20.031,8.984 20.031,20.024 0,11.04 -8.984,20.031 -20.031,20.031 -11.04,0 -20.024,-8.99 -20.024,-20.031 0,-11.041 8.984,-20.024 20.024,-20.024 z M 293.516,388.066 c -34.651,0 -62.84,-28.188 -62.84,-62.84 0,-34.652 28.188,-62.847 62.84,-62.847 34.651,0 62.839,28.188 62.839,62.847 10e-4,34.652 -28.188,62.84 -62.839,62.84 z M 267.5,211.101 c 0,-14.345 11.671,-26.016 26.016,-26.016 14.345,0 26.016,11.671 26.016,26.016 0,14.352 -11.671,26.022 -26.016,26.022 -14.345,0 -26.016,-11.671 -26.016,-26.022 z M 371.839,85.353 c -2.105,7.411 -8.403,12.656 -16.543,13.746 -0.752,0.098 -1.512,0.165 -2.271,0.251 -39.663,0 -79.32,0 -118.984,0 -0.496,-0.055 -0.991,-0.11 -1.487,-0.159 -2.834,-0.282 -5.539,-1.028 -8.036,-2.405 -5.587,-3.084 -8.886,-7.791 -9.859,-14.113 -0.104,-0.685 -0.159,-1.383 -0.239,-2.075 0,-0.477 0,-0.948 0,-1.426 0.08,-0.704 0.141,-1.414 0.239,-2.111 0.716,-4.902 2.962,-8.972 6.799,-12.105 3.929,-3.213 8.519,-4.584 13.531,-4.584 39.027,-0.012 78.048,-0.006 117.075,-0.006 2.051,0 4.07,0.251 6.053,0.789 11.128,3.004 16.647,13.892 13.722,24.198 z m 4.517,120.76 c 0,-14.345 11.671,-26.016 26.016,-26.016 14.346,0 26.017,11.671 26.017,26.016 0,14.352 -11.671,26.022 -26.017,26.022 -14.345,0 -26.016,-11.677 -26.016,-26.022 z m 63.947,67.938 c -14.345,0 -26.016,-11.671 -26.016,-26.016 0,-14.345 11.671,-26.016 26.016,-26.016 14.346,0 26.017,11.671 26.017,26.016 0,14.345 -11.671,26.016 -26.017,26.016 z m 44.921,-51.402 c -11.04,0 -20.024,-8.984 -20.024,-20.024 0,-11.04 8.984,-20.025 20.024,-20.025 11.047,0 20.031,8.984 20.031,20.025 0,11.041 -8.99,20.024 -20.031,20.024 z m 33.936,-33.935 c -11.04,0 -20.024,-8.99 -20.024,-20.031 0,-11.041 8.984,-20.025 20.024,-20.025 11.047,0 20.031,8.984 20.031,20.025 0,11.041 -8.984,20.031 -20.031,20.031 z"
   id="path8"
   style="fill:#ffffff" />
		<path
   d="m 351.208,78.798 c -0.33,-0.894 -1.053,-1.346 -1.995,-1.346 -0.924,0 -1.64,0.44 -1.977,1.316 -0.184,0.477 -0.288,1.022 -0.294,1.536 -0.037,1.67 -0.019,3.348 -0.012,5.018 0,0.288 0.03,0.582 0.079,0.863 0.202,1.132 1.034,1.916 2.068,1.952 1.292,0.049 2.283,-0.826 2.362,-2.191 0.062,-1.053 0.013,-2.105 0.013,-3.158 0.019,0 0.03,0 0.049,0 0,-0.79 0.036,-1.585 -0.013,-2.375 -0.029,-0.543 -0.09,-1.106 -0.28,-1.615 z"
   id="path10"
   style="fill:#333333" />
		<circle
   cx="485.224"
   cy="202.618"
   r="13.905"
   id="circle12"
   style="fill:#333333" />
		<circle
   cx="519.15997"
   cy="168.683"
   r="13.911"
   id="circle14"
   style="fill:#333333" />
		<path
   d="m 293.516,268.506 c -31.273,0 -56.72,25.447 -56.72,56.726 0,31.279 25.447,56.721 56.72,56.721 31.273,0 56.72,-25.441 56.72,-56.721 0,-31.28 -25.442,-56.726 -56.72,-56.726 z m 0,87.29 c -16.854,0 -30.563,-13.709 -30.563,-30.563 0,-16.854 13.708,-30.563 30.563,-30.563 16.854,0 30.563,13.709 30.563,30.563 0,16.854 -13.709,30.563 -30.563,30.563 z"
   id="path16"
   style="fill:#333333" />
		<circle
   cx="451.28299"
   cy="168.683"
   r="13.911"
   id="circle18"
   style="fill:#333333" />
		<path
   d="m 293.516,300.783 c -13.476,0 -24.443,10.967 -24.443,24.443 0,13.476 10.967,24.443 24.443,24.443 13.476,0 24.443,-10.967 24.443,-24.443 0,-13.476 -10.967,-24.443 -24.443,-24.443 z"
   id="path20"
   style="fill:#333333" />
		<circle
   cx="485.224"
   cy="134.748"
   r="13.905"
   id="circle22"
   style="fill:#333333" />
		<path
   d="m 296.276,77.513 c -1.09,-0.037 -2.062,0.716 -2.27,1.812 -0.092,0.459 -0.074,0.942 -0.117,1.414 -0.024,0.257 0.08,0.349 0.337,0.343 0.661,-0.012 1.316,-0.006 1.976,-0.006 0.661,0 1.316,-0.012 1.978,0.006 0.281,0.006 0.379,-0.092 0.354,-0.367 -0.037,-0.416 -0.03,-0.844 -0.092,-1.261 -0.165,-1.102 -1.077,-1.91 -2.166,-1.941 z"
   id="path24"
   style="fill:#333333" />
		<path
   d="m 151.997,173.903 h -28.018 v -28.011 c 0,-1.616 -1.316,-2.932 -2.931,-2.932 h -15.967 c -1.616,0 -2.932,1.316 -2.932,2.932 v 28.011 H 74.132 c -1.616,0 -2.932,1.316 -2.932,2.932 v 15.967 c 0,1.622 1.316,2.932 2.932,2.932 h 28.017 v 28.011 c 0,1.616 1.316,2.931 2.932,2.931 h 15.967 c 1.615,0 2.931,-1.315 2.931,-2.931 v -28.011 h 28.018 c 1.616,0 2.931,-1.316 2.931,-2.932 v -15.967 c 0,-1.616 -1.315,-2.932 -2.931,-2.932 z"
   id="path26"
   style="fill:#333333" />
		<path
   d="m 313.417,211.101 c 0,-10.973 -8.923,-19.896 -19.896,-19.896 -10.973,0 -19.896,8.923 -19.896,19.896 0,10.973 8.923,19.902 19.896,19.902 10.974,0 19.896,-8.929 19.896,-19.902 z"
   id="path28"
   style="fill:#333333" />
		<path
   d="m 331.802,78.266 c -1.206,0.018 -2.087,0.814 -2.118,2.001 -0.042,1.702 -0.036,3.403 0,5.098 0.025,1.181 0.912,2.001 2.1,2.038 1.163,0.037 2.1,-0.753 2.185,-1.94 0.062,-0.863 0.013,-1.738 0.013,-2.607 v 0 c 0,-0.894 0.049,-1.793 -0.013,-2.687 -0.093,-1.175 -0.992,-1.921 -2.167,-1.903 z"
   id="path30"
   style="fill:#333333" />
	</g>
</g>
<g
   id="g36"
   transform="translate(1.75,-0.09375)">
</g>
<g
   id="g38"
   transform="translate(1.75,-0.09375)">
</g>
<g
   id="g40"
   transform="translate(1.75,-0.09375)">
</g>
<g
   id="g42"
   transform="translate(1.75,-0.09375)">
</g>
<g
   id="g44"
   transform="translate(1.75,-0.09375)">
</g>
<g
   id="g46"
   transform="translate(1.75,-0.09375)">
</g>
<g
   id="g48"
   transform="translate(1.75,-0.09375)">
</g>
<g
   id="g50"
   transform="translate(1.75,-0.09375)">
</g>
<g
   id="g52"
   transform="translate(1.75,-0.09375)">
</g>
<g
   id="g54"
   transform="translate(1.75,-0.09375)">
</g>
<g
   id="g56"
   transform="translate(1.75,-0.09375)">
</g>
<g
   id="g58"
   transform="translate(1.75,-0.09375)">
</g>
<g
   id="g60"
   transform="translate(1.75,-0.09375)">
</g>
<g
   id="g62"
   transform="translate(1.75,-0.09375)">
</g>
<g
   id="g64"
   transform="translate(1.75,-0.09375)">
</g>
</svg>
