<?xml version="1.0" encoding="UTF-8" standalone="no"?>
<svg
   width="37"
   height="24"
   version="1.1"
   viewBox="0 0 27.75 18"
   id="svg160"
   sodipodi:docname="nes.svg"
   inkscape:version="1.2.1 (9c6d41e410, 2022-07-14)"
   xmlns:inkscape="http://www.inkscape.org/namespaces/inkscape"
   xmlns:sodipodi="http://sodipodi.sourceforge.net/DTD/sodipodi-0.dtd"
   xmlns="http://www.w3.org/2000/svg"
   xmlns:svg="http://www.w3.org/2000/svg">
  <sodipodi:namedview
     id="namedview162"
     pagecolor="#ffffff"
     bordercolor="#000000"
     borderopacity="0.25"
     inkscape:showpageshadow="2"
     inkscape:pageopacity="0.0"
     inkscape:pagecheckerboard="0"
     inkscape:deskcolor="#d1d1d1"
     inkscape:document-units="pt"
     showgrid="false"
     inkscape:zoom="30.068572"
     inkscape:cx="15.98014"
     inkscape:cy="11.340745"
     inkscape:window-width="1858"
     inkscape:window-height="1057"
     inkscape:window-x="54"
     inkscape:window-y="-8"
     inkscape:window-maximized="1"
     inkscape:current-layer="svg160" />
  <defs
     id="defs68">
    <symbol
       id="v"
       overflow="visible">
      <path
         d="M 6.7344,-0.40625 C 6.37893,-0.21875 6.01565,-0.08203 5.6406,0 5.2656,0.09375 4.87498,0.14062 4.4687,0.14062 3.2499,0.14062 2.2812,-0.19532 1.5625,-0.87498 0.85156,-1.56248 0.5,-2.48828 0.5,-3.65618 c 0,-1.1641 0.35156,-2.0859 1.0625,-2.7656 0.71875,-0.6875 1.6875,-1.0312 2.9062,-1.0312 0.40625,0 0.79688,0.046875 1.1719,0.14062 0.375,0.085938 0.73828,0.21875 1.0938,0.40625 v 1.5156 C 6.37893,-5.62879 6.03128,-5.80457 5.6875,-5.92176 5.35156,-6.03504 5,-6.09364 4.625,-6.09364 c -0.67969,0 -1.2109,0.21875 -1.5938,0.65625 -0.38672,0.42969 -0.57812,1.0234 -0.57812,1.7812 0,0.76172 0.19141,1.3594 0.57812,1.7969 0.38281,0.42969 0.91406,0.64062 1.5938,0.64062 0.375,0 0.72656,-0.054688 1.0625,-0.17188 0.34375,-0.11328 0.69141,-0.28906 1.0469,-0.53125 z"
         id="path2" />
    </symbol>
    <symbol
       id="b"
       overflow="visible">
      <path
         d="M 4.9219,-4 C 4.76565,-4.070312 4.6094,-4.125 4.45315,-4.15625 4.30471,-4.1875 4.16018,-4.203125 4.01565,-4.203125 c -0.46094,0 -0.8125,0.14844 -1.0625,0.4375 -0.24219,0.28125 -0.35938,0.69531 -0.35938,1.2344 v 2.5312 h -1.75 v -5.5 h 1.75 v 0.90625 c 0.22656,-0.35156 0.48828,-0.61328 0.78125,-0.78125 0.28906,-0.16406 0.64453,-0.25 1.0625,-0.25 0.050781,0 0.10938,0.00781 0.17188,0.015625 0.070313,0 0.17578,0.00781 0.3125,0.015625 z"
         id="path5" />
    </symbol>
    <symbol
       id="a"
       overflow="visible">
      <path
         d="m 6.3281,-2.7656 v 0.5 H 2.2187 c 0.039062,0.41797 0.1875,0.73047 0.4375,0.9375 0.25781,0.19922 0.61719,0.29688 1.0781,0.29688 0.375,0 0.75391,-0.050781 1.1406,-0.15625 0.38281,-0.11328 0.78125,-0.28125 1.1875,-0.5 v 1.3594 c -0.40625,0.15625 -0.82031,0.27344 -1.2344,0.34375 -0.41797,0.082031 -0.83594,0.125 -1.25,0.125 -1,0 -1.7773,-0.25 -2.3281,-0.75 -0.54297,-0.50781 -0.8125,-1.2227 -0.8125,-2.1406 0,-0.89453 0.26953,-1.5977 0.8125,-2.1094 0.53906,-0.50781 1.2852,-0.76562 2.2344,-0.76562 0.85156,0 1.5391,0.26172 2.0625,0.78125 0.51953,0.52344 0.78125,1.2148 0.78125,2.0781 z M 4.5156,-3.34372 c 0,-0.33203 -0.10156,-0.59766 -0.29688,-0.79688 -0.1875,-0.20703 -0.4375,-0.3125 -0.75,-0.3125 -0.34375,0 -0.62109,0.09375 -0.82812,0.28125 -0.21094,0.1875 -0.34375,0.46484 -0.40625,0.82812 z"
         id="path8" />
    </symbol>
    <symbol
       id="d"
       overflow="visible">
      <path
         d="m 3.3125,-2.4688 c -0.375,0 -0.65625,0.0625 -0.84375,0.1875 -0.17969,0.125 -0.26562,0.30859 -0.26562,0.54688 0,0.21875 0.070313,0.39062 0.21875,0.51562 0.15625,0.125 0.36328,0.1875 0.625,0.1875 0.33203,0 0.60938,-0.11328 0.82812,-0.34375 0.22656,-0.23828 0.34375,-0.53516 0.34375,-0.89062 V -2.46879 Z M 5.9844,-3.14068 V -8e-5 H 4.2188 v -0.8125 C 3.97661,-0.47664 3.71099,-0.23446 3.42192,-0.0782 3.12895,0.06633 2.76958,0.14055 2.34382,0.14055 c -0.5625,0 -1.0234,-0.16406 -1.375,-0.5 -0.35547,-0.33203 -0.53125,-0.75781 -0.53125,-1.2812 0,-0.64453 0.21875,-1.1172 0.65625,-1.4219 0.44531,-0.30078 1.1445,-0.45312 2.0938,-0.45312 h 1.0312 v -0.14062 c 0,-0.28125 -0.10938,-0.48438 -0.32812,-0.60938 -0.21874,-0.125 -0.5625,-0.1875 -1.0312,-0.1875 -0.375,0 -0.72656,0.039063 -1.0469,0.10938 -0.32422,0.074219 -0.625,0.18359 -0.90625,0.32812 v -1.3281 c 0.38281,-0.09375 0.76562,-0.16016 1.1406,-0.20312 0.375,-0.050781 0.75391,-0.078125 1.1406,-0.078125 0.98828,0 1.7031,0.19922 2.1406,0.59375 0.4375,0.38672 0.65625,1.0156 0.65625,1.8906 z"
         id="path11" />
    </symbol>
    <symbol
       id="c"
       overflow="visible">
      <path
         d="M 2.7656,-7.0469 V -5.5 h 1.8125 v 1.2656 H 2.7656 v 2.3281 c 0,0.25 0.046875,0.42188 0.14062,0.51562 0.10156,0.09375 0.30469,0.14062 0.60938,0.14062 h 0.90625 v 1.25 h -1.5156 c -0.6875,0 -1.1797,-0.14453 -1.4688,-0.4375 -0.29297,-0.28906 -0.4375,-0.78125 -0.4375,-1.4688 v -2.3281 h -0.875 v -1.2656 h 0.875 v -1.5469 z"
         id="path14" />
    </symbol>
    <symbol
       id="g"
       overflow="visible">
      <path
         d="M 4.5781,-4.6875 V -7.6406 H 6.3437 V 0 H 4.5781 v -0.79688 c -0.24219,0.32422 -0.50781,0.5625 -0.79688,0.71875 -0.29297,0.14453 -0.63281,0.21875 -1.0156,0.21875 -0.67969,0 -1.2344,-0.26562 -1.6719,-0.79688 -0.42969,-0.53906 -0.64062,-1.2383 -0.64062,-2.0938 0,-0.84375 0.21094,-1.5312 0.64062,-2.0625 0.4375,-0.53906 0.99219,-0.8125 1.6719,-0.8125 0.38281,0 0.72266,0.078125 1.0156,0.23438 0.28906,0.14844 0.55469,0.38281 0.79688,0.70312 z m -1.1562,3.5469 c 0.375,0 0.66016,-0.13281 0.85938,-0.40625 0.19531,-0.26953 0.29688,-0.67188 0.29688,-1.2031 0,-0.51953 -0.10156,-0.91406 -0.29688,-1.1875 C 4.08206,-4.20698 3.7969,-4.3437 3.4219,-4.3437 c -0.375,0 -0.66406,0.13672 -0.85938,0.40625 -0.19922,0.27344 -0.29688,0.66797 -0.29688,1.1875 0,0.53125 0.097656,0.93359 0.29688,1.2031 0.19531,0.27344 0.48438,0.40625 0.85938,0.40625 z"
         id="path17" />
    </symbol>
    <symbol
       id="j"
       overflow="visible">
      <path
         d="m 3.7656,-1.1406 c 0.375,0 0.66016,-0.13281 0.85938,-0.40625 0.19531,-0.26953 0.29688,-0.67188 0.29688,-1.2031 0,-0.51953 -0.10156,-0.91406 -0.29688,-1.1875 C 4.42576,-4.20698 4.1406,-4.3437 3.7656,-4.3437 c -0.375,0 -0.66797,0.14062 -0.875,0.42188 -0.19922,0.27344 -0.29688,0.66406 -0.29688,1.1719 0,0.52344 0.097656,0.92188 0.29688,1.2031 0.20703,0.27344 0.5,0.40625 0.875,0.40625 z M 2.5937,-4.6875 c 0.25,-0.32031 0.51953,-0.55469 0.8125,-0.70312 0.28906,-0.15625 0.62891,-0.23438 1.0156,-0.23438 0.67578,0 1.2266,0.27344 1.6562,0.8125 0.4375,0.53125 0.65625,1.2188 0.65625,2.0625 0,0.85547 -0.21875,1.5547 -0.65625,2.0938 C 5.64831,-0.12495 5.09753,0.14068 4.4218,0.14068 4.03508,0.14068 3.69524,0.066461 3.4062,-0.07807 3.11323,-0.23432 2.8437,-0.4726 2.5937,-0.79682 V 6e-5 h -1.75 v -7.6406 h 1.75 z"
         id="path20" />
    </symbol>
    <symbol
       id="f"
       overflow="visible">
      <path
         d="m 0.125,-5.5 h 1.75 L 3.3594,-1.7656 4.6094,-5.5 H 6.375 L 4.0625,0.5156 C 3.82031,1.12888 3.54688,1.5547 3.23438,1.7968 2.92969,2.0468 2.52344,2.1718 2.01558,2.1718 H 0.99998 V 1.0156 h 0.5625 C 1.85154,1.0156 2.06639,0.968725 2.2031,0.87498 2.33591,0.78123 2.44138,0.60936 2.5156,0.35936 L 2.5781,0.21874 Z"
         id="path23" />
    </symbol>
    <symbol
       id="i"
       overflow="visible">
      <path
         d="m 3.6094,-4.0781 c 0.39453,0 0.67578,-0.070313 0.84375,-0.21875 0.17578,-0.14453 0.26562,-0.39062 0.26562,-0.73438 0,-0.33203 -0.089844,-0.56641 -0.26562,-0.70312 C 4.28518,-5.87888 4.00393,-5.9531 3.6094,-5.9531 H 2.81252 v 1.875 z M 2.81252,-2.7656 V 0 h -1.8906 v -7.3281 h 2.8906 c 0.95703,0 1.6602,0.16406 2.1094,0.48438 0.45703,0.32422 0.6875,0.83984 0.6875,1.5469 0,0.48047 -0.12109,0.875 -0.35938,1.1875 -0.23047,0.3125 -0.58594,0.54297 -1.0625,0.6875 0.25781,0.0625 0.49219,0.19922 0.70312,0.40625 0.20703,0.19922 0.41406,0.51172 0.625,0.9375 L 7.53126,3e-5 h -2 l -0.90625,-1.8125 c -0.17969,-0.375 -0.35938,-0.625 -0.54688,-0.75 C 3.89844,-2.69528 3.65625,-2.76559 3.34375,-2.76559 Z"
         id="path26" />
    </symbol>
    <symbol
       id="h"
       overflow="visible">
      <path
         d="M 6.375,-3.3438 V 0 H 4.5938 v -2.5625 c 0,-0.46875 -0.011719,-0.78906 -0.03125,-0.96875 C 4.539112,-3.71875 4.503956,-3.85156 4.45317,-3.9375 4.39067,-4.05078 4.29692,-4.14062 4.17192,-4.20312 4.05473,-4.26562 3.92583,-4.29687 3.7813,-4.29687 c -0.36719,0 -0.65625,0.14062 -0.875,0.42188 -0.21094,0.28125 -0.3125,0.67188 -0.3125,1.1719 V 1e-5 h -1.75 v -5.5 h 1.75 v 0.8125 c 0.26953,-0.32031 0.55078,-0.55469 0.84375,-0.70312 0.30078,-0.15625 0.63281,-0.23438 1,-0.23438 0.625,0 1.1016,0.19922 1.4375,0.59375 0.33203,0.38672 0.5,0.94922 0.5,1.6875 z"
         id="path29" />
    </symbol>
    <symbol
       id="u"
       overflow="visible">
      <path
         d="m 2.8125,-5.8906 v 4.4688 h 0.67188 c 0.76953,0 1.3594,-0.19141 1.7656,-0.57812 0.41406,-0.38281 0.625,-0.94141 0.625,-1.6719 0,-0.72656 -0.20312,-1.2812 -0.60938,-1.6562 -0.40626,-0.375 -1,-0.5625 -1.7812,-0.5625 z M 0.9219,-7.3281 h 1.9844 c 1.1133,0 1.9414,0.085937 2.4844,0.25 0.55078,0.15625 1.0195,0.42188 1.4062,0.79688 0.34375,0.33594 0.59766,0.71875 0.76562,1.1562 0.16406,0.42969 0.25,0.91406 0.25,1.4531 0,0.55469 -0.085938,1.0469 -0.25,1.4844 C 7.39455,-1.75783 7.14064,-1.37893 6.7969,-1.04692 6.39846,-0.6602 5.92581,-0.39067 5.375,-0.23442 4.83203,-0.07817 4.0078,-4e-5 2.9062,-4e-5 H 0.9218 Z"
         id="path32" />
    </symbol>
    <symbol
       id="t"
       overflow="visible">
      <path
         d="m 0.84375,-5.5 h 1.75 V 0 h -1.75 z m 0,-2.1406 h 1.75 v 1.4375 h -1.75 z"
         id="path35" />
    </symbol>
    <symbol
       id="s"
       overflow="visible">
      <path
         d="m 5.1406,-5.3281 v 1.3438 c -0.375,-0.15625 -0.74219,-0.26953 -1.0938,-0.34375 -0.35547,-0.082031 -0.68359,-0.125 -0.98438,-0.125 -0.33594,0 -0.58594,0.042969 -0.75,0.125 -0.16797,0.085937 -0.25,0.21094 -0.25,0.375 0,0.14844 0.0625,0.25781 0.1875,0.32812 0.125,0.074219 0.34375,0.13281 0.65625,0.17188 l 0.3125,0.03125 c 0.90625,0.11719 1.5078,0.30859 1.8125,0.57812 0.3125,0.26172 0.46875,0.66797 0.46875,1.2188 0,0.59375 -0.21875,1.0391 -0.65625,1.3281 -0.42969,0.29297 -1.0703,0.4375 -1.9219,0.4375 -0.36719,0 -0.74219,-0.03125 -1.125,-0.09375 -0.38672,-0.050781 -0.78125,-0.13281 -1.1875,-0.25 v -1.3281 c 0.34375,0.16797 0.69531,0.29297 1.0625,0.375 0.375,0.085938 0.75,0.125 1.125,0.125 0.34375,0 0.60156,-0.046875 0.78125,-0.14062 0.17578,-0.09375 0.26562,-0.23438 0.26562,-0.42188 0,-0.15625 -0.0625,-0.26953 -0.1875,-0.34375 C 3.53895,-2.019411 3.30067,-2.08191 2.93739,-2.12488 L 2.64051,-2.15613 c -0.78125,-0.10156 -1.3359,-0.28516 -1.6562,-0.54688 -0.3125,-0.25781 -0.46875,-0.66016 -0.46875,-1.2031 0,-0.58203 0.19531,-1.0156 0.59375,-1.2969 0.40625,-0.28125 1.0195,-0.42188 1.8438,-0.42188 0.32031,0 0.66016,0.027344 1.0156,0.078125 0.36328,0.042969 0.75391,0.11719 1.1719,0.21875 z"
         id="path38" />
    </symbol>
    <symbol
       id="r"
       overflow="visible">
      <path
         d="m 4.4531,-7.6406 v 1.1562 H 3.48435 c -0.25,0 -0.42188,0.046875 -0.51562,0.14062 -0.09374,0.093745 -0.14062,0.25 -0.14062,0.46875 v 0.375 h 1.5 v 1.2656 h -1.5 V -3e-5 h -1.7656 v -4.2344 h -0.875 v -1.2656 h 0.875 v -0.375 c 0,-0.60156 0.16406,-1.0469 0.5,-1.3281 0.33203,-0.28906 0.84766,-0.4375 1.5469,-0.4375 z"
         id="path41" />
    </symbol>
    <symbol
       id="e"
       overflow="visible">
      <path
         d="m 3.4531,-4.375 c -0.38672,0 -0.68359,0.14062 -0.89062,0.42188 -0.19922,0.28125 -0.29688,0.68359 -0.29688,1.2031 0,0.53125 0.097656,0.9375 0.29688,1.2188 0.20703,0.28125 0.50391,0.42188 0.89062,0.42188 0.38281,0 0.67578,-0.14062 0.875,-0.42188 0.20703,-0.28125 0.3125,-0.6875 0.3125,-1.2188 0,-0.51953 -0.10547,-0.92188 -0.3125,-1.2031 C 4.12888,-4.23437 3.83591,-4.375 3.4531,-4.375 Z m 0,-1.25 c 0.94531,0 1.6875,0.25781 2.2188,0.76562 0.53125,0.51172 0.79688,1.2148 0.79688,2.1094 0,0.90625 -0.26562,1.6172 -0.79688,2.125 -0.53125,0.51172 -1.2734,0.76562 -2.2188,0.76562 -0.94922,0 -1.6875,-0.25391 -2.2188,-0.76562 -0.53125,-0.50781 -0.79688,-1.2188 -0.79688,-2.125 0,-0.89453 0.26562,-1.5977 0.79688,-2.1094 C 1.76555,-5.36719 2.5038,-5.625 3.4531,-5.625 Z"
         id="path44" />
    </symbol>
    <symbol
       id="q"
       overflow="visible">
      <path
         d="m 5.9375,-4.5781 c 0.21875,-0.34375 0.47656,-0.60156 0.78125,-0.78125 0.3125,-0.17578 0.64844,-0.26562 1.0156,-0.26562 0.63281,0 1.1133,0.19922 1.4375,0.59375 0.33203,0.38672 0.5,0.94922 0.5,1.6875 V 8e-5 h -1.7656 v -2.8594 -0.125 c 0.00781,-0.050781 0.015625,-0.11719 0.015625,-0.20312 0,-0.39453 -0.058594,-0.67578 -0.17188,-0.84375 -0.11719,-0.17578 -0.30469,-0.26562 -0.5625,-0.26562 -0.33594,0 -0.59375,0.13672 -0.78125,0.40625 -0.17969,0.27344 -0.26562,0.66797 -0.26562,1.1875 V 4e-5 h -1.7656 v -2.8594 c 0,-0.61328 -0.054688,-1.0039 -0.15625,-1.1719 -0.10547,-0.17578 -0.29297,-0.26562 -0.5625,-0.26562 -0.33594,0 -0.59375,0.14062 -0.78125,0.42188 -0.1875,0.27344 -0.28125,0.66406 -0.28125,1.1719 V 0 h -1.7656 v -5.5 h 1.7656 v 0.8125 c 0.21875,-0.3125 0.46875,-0.54688 0.75,-0.70312 0.28125,-0.15624 0.58594,-0.23438 0.92188,-0.23438 0.38281,0 0.71875,0.09375 1,0.28125 0.28906,0.17969 0.51562,0.43359 0.67188,0.76562 z"
         id="path47" />
    </symbol>
    <symbol
       id="p"
       overflow="visible">
      <path
         d="M 6.375,-3.3438 V 0 H 4.5938 v -2.5469 c 0,-0.47656 -0.011719,-0.80469 -0.03125,-0.98438 C 4.539112,-3.71878 4.503956,-3.85159 4.45317,-3.93753 4.39067,-4.05081 4.29692,-4.14065 4.17192,-4.20315 4.05473,-4.26565 3.92583,-4.2969 3.7813,-4.2969 c -0.36719,0 -0.65625,0.14062 -0.875,0.42188 -0.21094,0.28125 -0.3125,0.67188 -0.3125,1.1719 V -2e-5 h -1.75 v -7.6406 h 1.75 v 2.9531 c 0.26953,-0.32031 0.55078,-0.55469 0.84375,-0.70312 0.30078,-0.15625 0.63281,-0.23438 1,-0.23438 0.625,0 1.1016,0.19922 1.4375,0.59375 0.33203,0.38672 0.5,0.94922 0.5,1.6875 z"
         id="path50" />
    </symbol>
    <symbol
       id="o"
       overflow="visible">
      <path
         d="m 0.92188,-7.3281 h 2.1094 l 2.6719,5.0312 v -5.0312 h 1.7812 V 0 H 5.37498 L 2.71878,-5.0312 V 0 h -1.7969 z"
         id="path53" />
    </symbol>
    <symbol
       id="n"
       overflow="visible">
      <path
         d="M 0.78125,-2.1406 V -5.5 h 1.7656 v 0.5625 1.1094 0.90625 c 0,0.4375 0.00781,0.75781 0.03125,0.95312 0.019531,0.19922 0.054687,0.33984 0.10938,0.42188 0.070312,0.11719 0.16406,0.20312 0.28125,0.26562 0.125,0.0625 0.25781,0.09375 0.40625,0.09375 0.36328,0 0.64844,-0.14062 0.85938,-0.42188 0.20703,-0.28125 0.3125,-0.67188 0.3125,-1.1719 v -2.7188 h 1.7656 v 5.5 h -1.7656 v -0.79688 c -0.26172,0.32422 -0.54297,0.5625 -0.84375,0.71875 -0.29297,0.14453 -0.61719,0.21875 -0.96875,0.21875 -0.63672,0 -1.1211,-0.19141 -1.4531,-0.57812 -0.33594,-0.39453 -0.5,-0.96094 -0.5,-1.7031 z"
         id="path56" />
    </symbol>
    <symbol
       id="m"
       overflow="visible">
      <path
         d="m 0.92188,-7.3281 h 3.1406 c 0.92578,0 1.6406,0.21094 2.1406,0.625 0.5,0.41797 0.75,1.0078 0.75,1.7656 0,0.77344 -0.25,1.3672 -0.75,1.7812 -0.5,0.40625 -1.2148,0.60938 -2.1406,0.60938 h -1.25 V -2e-5 h -1.8906 z m 1.8906,1.375 v 2.0469 h 1.0469 c 0.36328,0 0.64453,-0.085938 0.84375,-0.26562 0.19531,-0.17578 0.29688,-0.42969 0.29688,-0.76562 0,-0.32031 -0.10156,-0.57031 -0.29688,-0.75 C 4.50391,-5.86322 4.22266,-5.95306 3.85938,-5.95306 Z"
         id="path59" />
    </symbol>
    <symbol
       id="l"
       overflow="visible">
      <path
         d="m 0.84375,-5.5 h 1.75 v 5.4062 c 0,0.72656 -0.17969,1.2852 -0.53125,1.6719 C 1.71875,1.97263 1.20703,2.17185 0.5313,2.17185 h -0.85938 v -1.1562 h 0.29688 c 0.33203,0 0.5625,-0.078125 0.6875,-0.23438 0.125,-0.14844 0.1875,-0.4375 0.1875,-0.875 z m 0,-2.1406 h 1.75 v 1.4375 h -1.75 z"
         id="path62" />
    </symbol>
    <symbol
       id="k"
       overflow="visible">
      <path
         d="m 5.2812,-5.3281 v 1.4375 C 5.03901,-4.05466 4.80073,-4.17576 4.56245,-4.24998 c -0.24219,-0.082031 -0.49219,-0.125 -0.75,-0.125 -0.49219,0 -0.87109,0.14844 -1.1406,0.4375 -0.27344,0.28125 -0.40625,0.67969 -0.40625,1.1875 0,0.52344 0.13281,0.92969 0.40625,1.2188 0.26953,0.28125 0.64844,0.42188 1.1406,0.42188 0.28125,0 0.53906,-0.039063 0.78125,-0.125 0.25,-0.082031 0.47656,-0.20312 0.6875,-0.35938 v 1.4375 C 5.00776,-0.06243 4.72651,0.00788 4.43745,0.06257 4.1562,0.113351 3.87495,0.140695 3.5937,0.140695 c -0.99219,0 -1.7656,-0.25391 -2.3281,-0.76562 -0.55469,-0.50781 -0.82812,-1.2188 -0.82812,-2.125 0,-0.89453 0.27344,-1.5977 0.82812,-2.1094 0.5625,-0.50781 1.3359,-0.76562 2.3281,-0.76562 0.28906,0 0.57031,0.027344 0.84375,0.078125 0.28125,0.054687 0.5625,0.125 0.84375,0.21875 z"
         id="path65" />
    </symbol>
  </defs>
  <rect
     style="fill:#1a1a1a;stroke-width:0.75"
     id="rect213"
     width="27.262688"
     height="12.197122"
     x="0.24942973"
     y="2.8684435"
     rx="5.313334"
     ry="0.079837315" />
  <g
     id="g158"
     transform="matrix(0.05293993,0,0,0.05293993,-4.6684956,-6.0264892)"
     style="fill:#ffffff">
    <path
       d="M 596.83,402.15 H 103.17 c -8.3164,0 -15.082,-6.7656 -15.082,-15.082 v -209.12 c 0,-8.3164 6.7656,-15.082 15.082,-15.082 h 493.66 c 8.3164,0 15.082,6.7656 15.082,15.082 v 209.12 c 0,8.3164 -6.7656,15.082 -15.082,15.082 z M 103.17,168.9 c -4.9883,0 -9.0469,4.0586 -9.0469,9.0469 v 209.12 c 0,4.9883 4.0586,9.0469 9.0469,9.0469 h 493.66 c 4.9883,0 9.0469,-4.0586 9.0469,-9.0469 v -209.12 c 0,-4.9883 -4.0586,-9.0469 -9.0469,-9.0469 z"
       id="path70"
       style="fill:#ffffff" />
    <path
       d="m 226.5,288.54 c 1.1055,0 2.0117,0.90625 2.0117,2.0117 v 24.793 c 0,1.1055 -0.90625,2.0117 -2.0117,2.0117 h -27.469 c -1.1055,0 -2.0117,0.90625 -2.0117,2.0117 v 27.488 c 0,1.1055 -0.90625,2.0117 -2.0117,2.0117 h -24.812 c -1.1055,0 -2.0117,-0.90625 -2.0117,-2.0117 v -27.488 c 0,-1.1055 -0.90625,-2.0117 -2.0117,-2.0117 h -27.469 c -1.1055,0 -2.0117,-0.90625 -2.0117,-2.0117 v -24.793 c 0,-1.1055 0.90625,-2.0117 2.0117,-2.0117 h 27.469 c 1.1055,0 2.0117,-0.90625 2.0117,-2.0117 v -27.488 c 0,-1.1055 0.90625,-2.0117 2.0117,-2.0117 h 24.812 c 1.1055,0 2.0117,0.90625 2.0117,2.0117 v 27.488 c 0,1.1055 0.90625,2.0117 2.0117,2.0117 z"
       id="path72"
       style="fill:#ffffff" />
    <path
       d="m 328.38,330.43 c 0,4.2578 -3.4492,7.707 -7.707,7.707 h -28.152 c -4.2578,0 -7.707,-3.4492 -7.707,-7.707 0,-4.2578 3.4492,-7.7109 7.707,-7.7109 h 28.152 c 4.2578,0.004 7.707,3.457 7.707,7.7109 z"
       id="path74"
       style="fill:#ffffff" />
    <path
       d="m 392.73,330.43 c 0,4.2578 -3.4531,7.707 -7.7109,7.707 h -28.152 c -4.2578,0 -7.707,-3.4492 -7.707,-7.707 0,-4.2578 3.4492,-7.7109 7.707,-7.7109 h 28.152 c 4.2578,0.004 7.7109,3.457 7.7109,7.7109 z"
       id="path76"
       style="fill:#ffffff" />
    <path
       d="m 497.8,330.43 c 0,13.977 -11.328,25.305 -25.305,25.305 -13.973,0 -25.301,-11.328 -25.301,-25.305 0,-13.973 11.328,-25.301 25.301,-25.301 13.977,0 25.305,11.328 25.305,25.301"
       id="path78"
       style="fill:#ffffff" />
    <path
       d="m 570.18,330.43 c 0,13.977 -11.328,25.305 -25.301,25.305 -13.973,0 -25.301,-11.328 -25.301,-25.305 0,-13.973 11.328,-25.301 25.301,-25.301 13.973,0 25.301,11.328 25.301,25.301"
       id="path80"
       style="fill:#ffffff" />
    <path
       d="m 422.56,198.72 c -2.7656,0 -5.043,2.2617 -5.0586,5.0273 l -0.10938,18.434 c -0.0156,2.7656 -2.293,5.0273 -5.0586,5.0273 h -146.79 c -2.7656,0 -5.0117,-2.2617 -4.9961,-5.0273 l 0.10938,-18.434 c 0.0156,-2.7656 -2.2305,-5.0273 -4.9961,-5.0273 h -148.13 c -2.7656,0 -5.0273,2.2617 -5.0273,5.0273 v 177.62 c 0,2.7656 2.2617,5.0273 5.0273,5.0273 h 148.13 c 2.7656,0 5.0078,-2.2617 4.9844,-5.0273 l -0.0859,-10.391 c -0.0234,-2.7656 2.2188,-5.0273 4.9844,-5.0273 h 146.79 c 2.7656,0 5.0469,2.2617 5.0703,5.0273 l 0.0859,10.391 c 0.0234,2.7656 2.3047,5.0273 5.0703,5.0273 h 171.25 c 2.7656,0 5.0273,-2.2617 5.0273,-5.0273 v -177.62 c 0,-2.7656 -2.2617,-5.0273 -5.0273,-5.0273 z M 233.54,318.04 c 0,2.7656 -2.2617,5.0273 -5.0273,5.0273 h -20.43 c -2.7656,0 -5.0273,2.2617 -5.0273,5.0273 v 20.43 c 0,2.7656 -2.2617,5.0273 -5.0273,5.0273 h -32.172 c -2.7656,0 -5.0273,-2.2617 -5.0273,-5.0273 v -20.43 c 0,-2.7656 -2.2617,-5.0273 -5.0273,-5.0273 h -20.449 c -2.7656,0 -5.0273,-2.2617 -5.0273,-5.0273 v -32.172 c 0,-2.7656 2.2617,-5.0273 5.0273,-5.0273 h 20.449 c 2.7656,0 5.0273,-2.2617 5.0273,-5.0273 v -20.449 c 0,-2.7656 2.2617,-5.0273 5.0273,-5.0273 h 32.172 c 2.7656,0 5.0273,2.2617 5.0273,5.0273 v 20.449 c 0,2.7656 2.2617,5.0273 5.0273,5.0273 h 20.43 c 2.7656,0 5.0273,2.2617 5.0273,5.0273 z m 184,34.766 c 0,2.7656 -2.2617,5.0273 -5.0273,5.0273 h -146.79 c -2.7656,0 -5.0273,-2.2617 -5.0273,-5.0273 v -44.742 c 0,-2.7656 2.2617,-5.0273 5.0273,-5.0273 h 146.79 c 2.7656,0 5.0273,2.2617 5.0273,5.0273 z m 0,-62.586 c 0,2.7656 -2.2617,5.0273 -5.0273,5.0273 h -146.79 c -2.7656,0 -5.0273,-2.2617 -5.0273,-5.0273 v -18.098 c 0,-2.7656 2.2617,-5.0273 5.0273,-5.0273 h 146.79 c 2.7656,0 5.0273,2.2617 5.0273,5.0273 z m 0,-34.855 c 0,2.7656 -2.2617,5.0273 -5.0273,5.0273 h -146.79 c -2.7656,0 -5.0273,-2.2617 -5.0273,-5.0273 v -16.086 c 0,-2.7656 2.2617,-5.0273 5.0273,-5.0273 h 146.79 c 2.7656,0 5.0273,2.2617 5.0273,5.0273 z m 85.121,100.21 c 0,2.7656 -2.2617,5.0273 -5.0273,5.0273 h -50.27 c -2.7656,0 -5.0273,-2.2617 -5.0273,-5.0273 v -50.27 c 0,-2.7656 2.2617,-5.0273 5.0273,-5.0273 h 50.27 c 2.7656,0 5.0273,2.2617 5.0273,5.0273 z m 72.391,0 c 0,2.7656 -2.2617,5.0273 -5.0273,5.0273 h -50.27 c -2.7656,0 -5.0273,-2.2617 -5.0273,-5.0273 v -50.27 c 0,-2.7656 2.2617,-5.0273 5.0273,-5.0273 h 50.27 c 2.7656,0 5.0273,2.2617 5.0273,5.0273 z"
       id="path82"
       style="fill:#ffffff" />
  </g>
</svg>
