<?xml version="1.0" encoding="UTF-8" standalone="no"?>
<svg
   version="1.0"
   width="28.5"
   height="24"
   viewBox="0 0 28.5 24"
   preserveAspectRatio="xMidYMid"
   id="svg34"
   sodipodi:docname="ps5.svg"
   inkscape:version="1.2.1 (9c6d41e410, 2022-07-14)"
   xmlns:inkscape="http://www.inkscape.org/namespaces/inkscape"
   xmlns:sodipodi="http://sodipodi.sourceforge.net/DTD/sodipodi-0.dtd"
   xmlns="http://www.w3.org/2000/svg"
   xmlns:svg="http://www.w3.org/2000/svg">
  <defs
     id="defs38" />
  <sodipodi:namedview
     id="namedview36"
     pagecolor="#ffffff"
     bordercolor="#000000"
     borderopacity="0.25"
     inkscape:showpageshadow="2"
     inkscape:pageopacity="0.0"
     inkscape:pagecheckerboard="0"
     inkscape:deskcolor="#d1d1d1"
     showgrid="false"
     inkscape:zoom="19.379145"
     inkscape:cx="9.0045251"
     inkscape:cy="20.382736"
     inkscape:window-width="1858"
     inkscape:window-height="1057"
     inkscape:window-x="54"
     inkscape:window-y="-8"
     inkscape:window-maximized="1"
     inkscape:current-layer="svg34" />
  <g
     fill="#000000"
     id="g22"
     transform="matrix(0.0547836,0,0,0.0547836,0.18359862,-1.8099675)">
    <path
       d="m 48.6,420.7 c 0.7,-1.9 -2.8,-3.1 -6.2,-2.3 -3.4,0.9 -3.2,-2 0.6,-8.7 1.6,-2.9 7.9,-19.9 13.9,-37.8 14.9,-44.1 27.3,-73.4 43.8,-103.2 16.1,-29.1 24.2,-40.9 39.7,-57.7 11.7,-12.5 17.6,-22.3 17.6,-28.9 0,-4 -7.2,-39.9 -12.1,-60.4 -2.2,-8.8 -3.8,-13.7 -5.5,-15.6 -1.3,-1.6 -2.4,-3.8 -2.4,-5 0,-2.4 0.4,-2.5 3,-1.1 2.6,1.4 8,0.2 7.3,-1.6 -0.3,-1 0.3,-1.4 2,-1.4 2.2,0 2.9,0.8 4.5,5.3 2.1,5.7 6,22.4 12.1,52.6 3.4,16.5 4.5,20.2 7.4,25 4,6.5 10.1,11.6 15.7,13.1 2.6,0.7 25.4,1 68.2,0.8 l 64.3,-0.3 4.6,-2.7 c 10.2,-6 13,-12.4 19.4,-43.6 8.9,-43.4 11,-50.2 15.1,-50.2 1.7,0 2.1,0.5 1.7,1.9 -0.4,1.4 0.2,1.9 2.6,2.3 1.6,0.2 3.7,0 4.5,-0.4 1.3,-0.7 1.6,-0.4 1.6,1.7 0,1.4 -0.7,3.6 -1.5,4.9 -3.4,5.1 -17,69 -16.3,76 0.9,7.2 5.6,15.1 15.9,26.1 16.2,17.4 25.4,30.6 40.4,58 19.5,35.6 31.7,64.6 47.9,114.7 4.8,14.7 8.8,25.3 10.6,28 3.2,4.6 4.3,11.1 1.5,8.8 -1.9,-1.6 -7.8,-0.3 -7.1,1.6 0.4,1 -0.2,1.4 -1.9,1.4 -3.9,0 -6.6,-6 -17.8,-39.6 -5.7,-17.1 -13,-37.5 -16.1,-45.5 -10.9,-27.4 -32.1,-68.6 -45.9,-89.4 -7.5,-11.2 -12,-16.9 -21.8,-27 -7.6,-8 -15.9,-19.5 -15.9,-22.2 0,-1 -1.6,-0.3 -4.7,2 -8.9,6.4 -5.8,6.2 -83.8,6.2 -78.4,0 -75,0.3 -83.4,-6.4 l -3.7,-2.9 -3.3,6.4 c -2.1,4 -7,10.2 -13.1,16.8 -11.8,12.5 -19.9,23.2 -28.6,37.8 -24.1,40.6 -39.6,75.7 -56.8,128.8 -9.2,28.1 -12,34.4 -15.9,34.8 -2,0.3 -2.6,0 -2.1,-1.1 z"
       id="path2" />
    <path
       d="m 163,286.7 c -9.5,-2.7 -18.5,-11.5 -21,-20.7 -0.5,-1.9 -1,-7.2 -1,-11.7 0,-14.7 5.8,-24.6 17.8,-30.1 4.9,-2.3 7.1,-2.6 15.2,-2.6 8.1,0 10.3,0.3 15,2.5 6.6,3.1 12.1,8.5 15.2,14.8 3.4,6.8 3.8,21.4 0.8,29.3 -2.6,7 -8.6,13.5 -15.5,16.7 -6.1,2.9 -19.5,3.8 -26.5,1.8 z"
       id="path4" />
    <path
       d="m 326.7,286.6 c -9.4,-2.6 -18.3,-11.5 -20.8,-20.9 -1.6,-6.2 -0.7,-22.4 1.5,-26.7 3.7,-7 7.7,-10.9 14.4,-14.2 6.1,-3 7.3,-3.3 16.2,-3.2 12.2,0 17.9,2.3 25,10.1 6,6.5 8,12.5 8,23.4 0,14 -6.2,24.5 -17.7,29.9 -6,2.8 -19.4,3.7 -26.6,1.6 z"
       id="path6" />
    <path
       d="m 406,239.8 c -2.5,-1.3 -5.5,-3.9 -6.8,-5.8 -2.1,-3.1 -2.3,-4.4 -2,-12 0.3,-9.5 2.3,-13.6 8.1,-16.7 4.9,-2.7 17.2,-2.4 21.7,0.4 5.5,3.4 8,8.7 8,16.9 0,12.6 -6.8,19.4 -19,19.4 -3.8,0 -7,-0.7 -10,-2.2 z"
       id="path8" />
    <path
       d="m 81.9,226.9 c -1.9,-1.9 -2.1,-3 -1.8,-14.3 l 0.4,-12.1 -12.1,0.4 C 51.8,201.3 52,201.5 52,184.2 c 0,-12.4 0.1,-12.9 2.5,-15.2 2.3,-2.2 2.9,-2.3 14.2,-1.8 l 11.8,0.5 -0.4,-11.9 c -0.3,-11.3 -0.2,-12.1 2,-14.4 2.1,-2.3 2.8,-2.4 14.9,-2.4 12.1,0 12.7,0.1 15,2.4 2.1,2.4 2.2,3.1 1.8,14.4 l -0.4,11.9 11.6,-0.5 c 10.7,-0.4 11.7,-0.3 14.3,1.8 2.7,2.1 2.7,2.2 2.7,14.9 0,12.2 -0.1,12.9 -2.4,15 -2.3,2.1 -3.1,2.3 -14.3,1.9 l -11.9,-0.3 0.4,11.8 c 0.4,11.2 0.3,11.9 -1.8,14.3 -2.3,2.3 -2.9,2.4 -15.2,2.4 -11.7,0 -13,-0.2 -14.9,-2.1 z M 100,184 c 0,-2.7 -0.3,-3 -3,-3 -2.7,0 -3,0.3 -3,3 0,2.7 0.3,3 3,3 2.7,0 3,-0.3 3,-3 z"
       id="path10" />
    <path
       d="m 368,201.8 c -2.5,-1.3 -5.5,-3.9 -6.8,-5.8 -2.1,-3.1 -2.3,-4.4 -2,-12 0.2,-7 0.7,-9.1 2.6,-11.8 3.6,-5 7.6,-6.7 16.2,-6.7 9,0 13.3,2.2 16.9,8.5 2,3.5 2.3,5.2 2,11.8 -0.3,6.2 -0.9,8.4 -2.8,11.1 -5,7 -17.4,9.3 -26.1,4.9 z"
       id="path12" />
    <path
       d="m 444,201.8 c -2.5,-1.3 -5.5,-3.9 -6.8,-5.8 -2.1,-3.1 -2.3,-4.4 -2,-12 0.3,-9.5 2.3,-13.6 8.1,-16.7 4.9,-2.7 17.2,-2.4 21.7,0.4 5.5,3.4 8,8.7 8,16.9 0,12.6 -6.8,19.4 -19,19.4 -3.8,0 -7,-0.7 -10,-2.2 z"
       id="path14" />
    <path
       d="m 406,163.8 c -2.5,-1.3 -5.5,-3.9 -6.8,-5.8 -2.1,-3.1 -2.3,-4.4 -2,-12 0.2,-7 0.7,-9.1 2.6,-11.8 3.6,-5 7.6,-6.7 16.2,-6.7 9,0 13.3,2.2 16.9,8.5 2,3.5 2.3,5.2 2,11.8 -0.3,6.2 -0.9,8.4 -2.8,11.1 -5,7 -17.4,9.3 -26.1,4.9 z"
       id="path16" />
    <path
       d="m 130.7,141.8 c -2,-1.5 -4.7,-12.4 -4.7,-19 0,-6.7 2.3,-8.8 9.3,-8.8 6.7,0 8.1,1.4 10.1,10 3.4,14.4 1.6,19 -7.7,19 -2.9,0 -6.1,-0.6 -7,-1.2 z"
       id="path18" />
    <path
       d="m 367,141 c -2.4,-2.4 -2.6,-8.7 -0.5,-17.3 1.9,-8.1 3.6,-9.7 10.1,-9.7 9.2,0 11.1,4.4 8,18.8 -1.8,8.5 -3.5,10.2 -10.3,10.2 -4,0 -5.8,-0.5 -7.3,-2 z"
       id="path20" />
  </g>
  <g
     fill="#ffffff"
     id="g32"
     transform="matrix(0.0547836,0,0,0.0547836,0.18359862,-1.8099675)">
    <path
       d="m 55,423.8 c -3.6,-0.6 -6.7,-1.2 -6.9,-1.4 -0.2,-0.2 0.8,-2.1 2.2,-4.3 3.6,-5.5 6.5,-12.9 13.7,-35.2 15.9,-49.8 32.6,-87.6 56.4,-127.7 8.7,-14.6 16.8,-25.3 28.7,-38 8.1,-8.5 10.9,-12.3 14.2,-19.2 l 4.1,-8.5 5.2,5.1 c 9.4,9.2 5.6,8.8 79.7,9.2 41,0.2 66.8,-0.1 70.3,-0.7 7.7,-1.4 11.9,-3.7 17.5,-9.2 l 4.8,-4.9 1.6,4.9 c 2.1,6.5 8,14.9 16.9,24.1 9.2,9.5 13.8,15.2 21.3,26.5 13.8,20.8 35,62 45.9,89.4 3.1,8 10.4,28.5 16.1,45.5 6.9,20.7 11.5,33 13.9,36.9 2,3.2 3.4,6 3.3,6.1 -0.6,0.5 -15.8,2.6 -18.9,2.6 -8.3,0 -16.6,-14.5 -27.8,-48.5 -8.4,-25.4 -14.2,-38.7 -21.5,-49.8 -12.9,-19.3 -25,-24.8 -44.2,-20.2 -8.9,2.2 -182.1,2.2 -191,0 -19.1,-4.6 -31.3,0.9 -44,20 -7.7,11.5 -12.6,22.8 -21.2,48.5 -8.9,26.8 -15.4,41.1 -21.2,46.3 -4.5,4.1 -6.6,4.4 -19.1,2.5 z m 131.7,-142 c 18.7,-8.8 23,-33.6 8.5,-48.3 -15,-15.2 -41.7,-9.8 -49.2,10.1 -4.9,13.2 -0.6,27.8 10.7,35.5 9.1,6.3 20.3,7.3 30,2.7 z m 163.8,0.1 c 18.5,-8.7 23.2,-32.2 9.5,-47.2 -9.6,-10.5 -22.8,-13 -35.4,-6.8 -10,4.9 -15.6,13.1 -16.4,24.1 -0.5,8 0.9,13.4 5.1,19.6 8.3,12.1 24.1,16.5 37.2,10.3 z"
       id="path24" />
    <path
       d="M 34,419.1 C 21.8,415.3 13.5,404.8 7.1,385.1 -3,353.9 -1.4,299.5 11.7,236.6 c 8.1,-39 25,-88.6 40.1,-117.1 3.4,-6.5 4,-7.1 8,-7.9 4,-0.9 4.2,-1.1 4.2,-4.8 0,-4.5 1.8,-6.4 10.9,-11.2 8.6,-4.5 19.5,-7.5 30.1,-8.2 9.5,-0.7 24,1 25.2,2.9 0.4,0.6 0.8,2.9 0.8,4.9 V 99 l 4.2,-0.2 c 3.5,-0.1 4.6,0.4 7.3,3.4 3.8,4.1 6.1,12.8 14.5,53.9 4.4,21.9 4.9,25.2 4,29.8 -1.6,8.4 -6.4,16.1 -17.7,28.3 -15.4,16.5 -23.6,28.4 -39.6,57.5 C 87.2,301.4 74.8,330.8 60,374.6 45.1,419 43.4,421.9 34,419.1 Z m 74.7,-195.3 c 2,-1.8 2.3,-3.1 2.3,-8.7 0,-9.3 -1.5,-13.7 -6.6,-19.1 -6.1,-6.6 -7.6,-6.8 -13.1,-1.7 -6.3,5.8 -8.3,10.4 -8.3,20 0,10.9 0.9,11.7 13.7,11.7 8.6,0 9.9,-0.3 12,-2.2 z M 76.1,197.3 c 3.4,-0.7 14.9,-10.8 14.9,-13.1 0,-1.8 -7.9,-10.1 -11.4,-11.9 -1.6,-0.8 -6.7,-1.8 -11.3,-2.1 -7.7,-0.4 -8.5,-0.3 -10.8,1.8 -2.3,2.2 -2.5,3 -2.5,12.2 0,12.7 0.9,13.8 10.9,13.8 3.8,0 8.3,-0.3 10.2,-0.7 z m 60.6,-1.5 c 2.1,-2 2.3,-3 2.3,-11.9 0,-9.4 -0.1,-9.8 -2.7,-11.9 -2.5,-2 -3.7,-2.2 -10.9,-1.7 -4.4,0.2 -9.4,1.2 -11,2 -3.3,1.7 -11.4,10 -11.4,11.7 0,1.8 9.3,11.2 12.5,12.6 1.7,0.7 6.6,1.3 10.9,1.4 6.8,0 8.3,-0.3 10.3,-2.2 z M 104,172.2 c 6.2,-6.3 7,-8.6 7,-19.6 0,-4.8 -0.4,-6.4 -2.2,-8.3 -2,-2.1 -3,-2.3 -11.7,-2.3 -8.3,0 -9.7,0.3 -11.8,2.2 -2,1.8 -2.3,3.1 -2.3,8.8 0,10.7 0.8,12.8 7,19.2 3.1,3.2 6.2,5.8 7,5.8 0.8,0 3.9,-2.6 7,-5.8 z M 142,138 c 2.4,-2.4 2.4,-2.7 0.4,-11 -1.7,-7.2 -3.6,-10 -7.1,-10 -2.7,0 -6.3,3.3 -6.3,5.8 0,4.1 3.2,14.8 4.7,16 2.5,1.8 6,1.5 8.3,-0.8 z"
       id="path26" />
    <path
       d="m 468.2,416.2 c -4.2,-5.3 -6,-9.5 -13.8,-33.9 -14.7,-45.7 -27.7,-76.7 -46.9,-111.8 -15,-27.4 -24.2,-40.6 -40.4,-58 -10.2,-10.9 -14.3,-17.6 -16.2,-26.4 -0.9,-4.4 -0.6,-7.2 2.6,-23.3 6.3,-31.4 11.3,-52.8 13.4,-57.1 2.5,-5.1 5.4,-7.1 10.3,-6.9 3.7,0.2 3.8,0.1 3.8,-3.6 0,-2 0.4,-4.3 0.8,-4.9 1.2,-1.9 15.7,-3.6 25.2,-2.9 10.6,0.7 21.5,3.7 30.1,8.2 9.1,4.8 10.9,6.7 10.9,11.2 0,3.7 0.2,3.9 4.3,4.8 3.9,0.8 4.5,1.4 7.9,7.9 18.8,35.7 37.7,95.7 45.2,144 9.8,62.9 7.9,106.2 -5.9,135 -5.9,12.3 -14.1,19.5 -24.3,21.1 -3.6,0.6 -4.1,0.4 -7,-3.4 z M 423,236.8 c 8.3,-4.2 11.3,-14 6.8,-22 -5.8,-10.2 -20.2,-11.1 -26.9,-1.6 -3.5,4.8 -3.8,13.2 -0.7,17.8 2.5,3.8 9.7,8 13.8,8 1.4,0 4.6,-1 7,-2.2 z m -38.4,-37.7 c 8.4,-3.8 11.8,-14 7.3,-22.1 -3.1,-5.4 -8,-8.4 -13.8,-8.4 -9.2,0.1 -15.2,5.8 -15.9,15.3 -0.5,7 2.2,11.5 8.8,14.9 5.4,2.7 8.2,2.7 13.6,0.3 z m 76.4,-0.3 c 8.3,-4.2 11.3,-14 6.8,-22 -5.8,-10.2 -20.2,-11.1 -26.9,-1.6 -3.5,4.8 -3.8,13.2 -0.7,17.8 2.5,3.8 9.7,8 13.8,8 1.4,0 4.6,-1 7,-2.2 z m -38.4,-37.7 c 8.4,-3.8 11.8,-14 7.3,-22.1 -3.1,-5.4 -8,-8.4 -13.8,-8.4 -9.2,0.1 -15.2,5.8 -15.9,15.3 -0.5,7 2.2,11.5 8.8,14.9 5.4,2.7 8.2,2.7 13.6,0.3 z M 378.5,138 c 1.4,-1.6 4.3,-11.7 4.5,-15.6 0,-1.9 -4,-5.4 -6.4,-5.4 -3.3,0 -5.5,3 -7.1,9.7 -1.9,7.8 -1.8,9 0.5,11.3 2.5,2.5 6.2,2.6 8.5,0 z"
       id="path28" />
    <path
       d="m 185.6,195.5 c -5.5,-1.9 -10.3,-6.2 -14.2,-12.6 -3.1,-4.9 -4.1,-8.6 -8.8,-31.5 -7.4,-35.5 -9.4,-43.6 -12.1,-49.1 -1.4,-2.6 -2.3,-4.8 -2.1,-5 0.5,-0.5 28.8,-3.2 46.1,-4.3 27.9,-1.8 73.5,-2.3 100.5,-1.1 24,1.1 55.4,3.4 64.7,4.7 l 4.2,0.6 -2.3,4.7 c -2.9,5.7 -5.3,15.2 -12.1,48.3 -6.4,31.2 -9.2,37.6 -19.4,43.6 l -4.6,2.7 -68,0.2 c -56.1,0.2 -68.7,0 -71.9,-1.2 z"
       id="path30" />
  </g>
</svg>
